<svg id="Layer_1" xmlns="http://www.w3.org/2000/svg" viewBox="0 0 34.7 207.8"><style>.st0{fill:#004169}</style><path class="st0" d="M13 203.8h15.2c1.2.1 2.1-.3 2.6-1.1s.5-1.7 0-2.5-1.4-1.2-2.6-1.1h-.3c-.3 0-.5-.1-.6-.2-.1-.1-.2-.3-.2-.6v-2.4c0-.6.3-.9 1-.8 2.2.2 3.8.8 4.9 2 1.1 1.1 1.7 2.6 1.7 4.4 0 1.9-.6 3.5-1.9 4.6-1.3 1.2-3.2 1.8-5.7 1.8H14c-2.5 0-4.4-.6-5.7-1.8-1.3-1.2-1.9-2.7-1.9-4.6 0-1.8.6-3.3 1.7-4.4 1.1-1.1 2.8-1.8 4.9-2 .7-.1 1 .2 1 .8v2.4c0 .3-.1.5-.2.6-.1.1-.3.2-.6.2H13c-1.2-.1-2.1.3-2.6 1.1s-.5 1.7 0 2.5 1.4 1.2 2.6 1.1zM34.6 177v2.8c0 .1-.1.2-.2.3-.1.1-.2.2-.4.2l-2.2.4c-.4.1-.6.2-.7.2-.1.1-.1.3-.1.6v3.6c0 .4 0 .6.1.7.1.1.3.2.7.2l2.2.4c.2 0 .3.1.4.2.1.1.1.2.2.3v3.2c0 .1-.1.2-.2.2-.1.1-.3.1-.5.1l-26.6-5c-.3-.1-.5-.1-.6-.2-.1-.1-.1-.3-.1-.6v-2.2c0-.3 0-.5.1-.6.1-.1.3-.2.6-.2l26.6-5c.3-.1.4 0 .5.1.1-.2.2 0 .2.3zm-17.9 6.5l9.7 1.6c.4.1.6.1.7 0 .1-.1.1-.3.1-.7v-2.2c0-.4 0-.6-.1-.7-.1-.1-.3-.1-.7 0l-9.7 1.6c-.1 0-.2.1-.2.2.1.1.1.2.2.2zm17.9-21.6v8.4c0 .3-.1.5-.2.6-.1.1-.3.2-.6.2H7.4c-.3 0-.5-.1-.6-.2-.1-.1-.2-.3-.2-.6V168c0-.3.1-.5.2-.6.1-.1.3-.2.6-.2h9.1l-1.5-1.3c-.4-.3-.5-.7-.1-1.1l1.4-1.6c.3-.4.7-.4 1.1-.1l4.9 4.1H30c.4 0 .7 0 .7-.1.1-.1.1-.3.1-.7V162c0-.3.1-.5.2-.6.1-.1.3-.2.6-.2h2.2c.3 0 .5.1.6.2.1 0 .2.2.2.5zm0-18v2.8c0 .1-.1.2-.2.3-.1.1-.2.2-.4.2l-2.2.4c-.4.1-.6.2-.7.2-.1.1-.1.3-.1.6v3.6c0 .4 0 .6.1.7.1.1.3.2.7.2l2.2.4c.2 0 .3.1.4.2.1.1.1.2.2.3v3.2c0 .1-.1.2-.2.2-.1.1-.3.1-.5.1l-26.6-5c-.3-.1-.5-.1-.6-.2-.1-.1-.1-.3-.1-.6v-2.2c0-.3 0-.5.1-.6.1-.1.3-.2.6-.2l26.6-5c.3-.1.4 0 .5.1.1-.2.2 0 .2.3zm-17.9 6.5l9.7 1.6c.4.1.6.1.7 0 .1-.1.1-.3.1-.7v-2.2c0-.4 0-.6-.1-.7-.1-.1-.3-.1-.7 0l-9.7 1.6c-.1 0-.2.1-.2.2.1.1.1.2.2.2zm17.9-34.6v1.8c0 .4-.2.7-.5.8l-14.9 5.3c-.1 0-.1.1-.2.1v.1l.1.1h14.6c.3 0 .5.1.6.2.1.1.2.3.2.6v2.4c0 .3-.1.5-.2.6-.1.1-.3.2-.6.2H7.4c-.3 0-.5-.1-.6-.2-.1-.1-.2-.3-.2-.6v-1.8c0-.4.2-.7.5-.8l14.9-5.3c.1 0 .1-.1.2-.1v-.1s-.1-.1-.2-.1H7.4c-.3 0-.5-.1-.6-.2-.1-.1-.2-.3-.2-.6v-2.4c0-.3.1-.5.2-.6.1-.1.3-.2.6-.2h26.4c.3 0 .5.1.6.2.1.1.2.3.2.6zm0-19.4v2.8c0 .1-.1.2-.2.3-.1.1-.2.2-.4.2l-2.2.4c-.4.1-.6.2-.7.2-.1.1-.1.3-.1.6v3.6c0 .4 0 .6.1.7.1.1.3.2.7.2l2.2.4c.2 0 .3.1.4.2.1.1.1.2.2.3v3.2c0 .1-.1.2-.2.2-.1.1-.3.1-.5.1l-26.6-5c-.3-.1-.5-.1-.6-.2-.1-.1-.1-.3-.1-.6v-2.2c0-.3 0-.5.1-.6.1-.1.3-.2.6-.2l26.6-5c.3-.1.4 0 .5.1.1-.2.2 0 .2.3zm-17.9 6.5l9.7 1.6c.4.1.6.1.7 0 .1-.1.1-.3.1-.7v-2.2c0-.4 0-.6-.1-.7-.1-.1-.3-.1-.7 0l-9.7 1.6c-.1 0-.2.1-.2.2.1.1.1.2.2.2zM6.6 89.8V85c0-1.9.6-3.5 1.9-4.6 1.3-1.2 3.2-1.8 5.7-1.8h3.5c2.5 0 4.4.6 5.7 1.8 1.3 1.2 1.9 2.7 1.9 4.6v1.2c0 .2.1.3.2.3s.3.1.6.1h7.7c.5 0 .8.3.8.8v2.4c0 .3-.1.5-.2.6-.1.1-.3.2-.6.2H7.4c-.3 0-.5-.1-.6-.2-.2-.1-.2-.3-.2-.6zm4.5-3.2h9.5c.4 0 .7 0 .7-.1.1-.1.1-.3.1-.7V85c0-.7-.2-1.3-.7-1.7s-1.2-.7-2.2-.7h-5.4c-1 0-1.7.2-2.2.7s-.7 1-.7 1.7v.8c0 .4 0 .6.1.7.2 0 .4.1.8.1zm-4.5-14v-5.2c0-1.9.6-3.4 1.8-4.4 1.2-1.1 3.1-1.6 5.6-1.6h1.3c3.1 0 5.3.8 6.5 2.4l11.9-2.4c.6-.1.8 0 .8.5v2.9c0 .1-.1.2-.2.3-.1.1-.2.2-.4.2l-10.8 2c-.2 0-.4.2-.4.5v.8c0 .4 0 .6.1.7.1.1.3.1.7.1h10.1c.3 0 .5.1.6.2.1.1.2.3.2.6v2.4c0 .3-.1.5-.2.6-.1.1-.3.2-.6.2H7.4c-.3 0-.5-.1-.6-.2-.2-.1-.2-.3-.2-.6zm3.5-5.2v1.2c0 .4 0 .6.1.7.1.1.3.1.7.1h7.6c.4 0 .6 0 .7-.1.1-.1.1-.3.1-.7v-1.2c0-1.3-.9-2-2.8-2H13c-2 0-2.9.6-2.9 2zm.6-21.9l19.8 6.7c.2.1.3 0 .3-.2v-5.8c0-.3.1-.5.2-.6.1-.1.3-.2.6-.2h2.2c.3 0 .5.1.6.2.1.1.2.3.2.6v9.6c0 .3-.1.5-.2.6-.1.1-.3.2-.6.2h-2.4c-.3 0-.6-.1-.9-.2l-19.8-6.7c-.2-.1-.3 0-.3.2v5.8c0 .3-.1.5-.2.6s-.3.2-.6.2H7.4c-.3 0-.5-.1-.6-.2-.1-.1-.2-.3-.2-.6v-9.6c0-.3.1-.5.2-.6.1-.1.3-.2.6-.2h2.4c.3 0 .6.1.9.2zM5.2 33.3v1.4c0 .3-.1.4-.4.4h-4c-.3 0-.5-.1-.7-.2 0 0-.1-.3-.1-.6V32c0-.6.4-.8 1.1-.5l3.4 1.2c.3.1.5.2.6.3 0 0 .1.1.1.3zm8.8-5.6h13.1c2.5 0 4.4.6 5.7 1.8 1.3 1.2 1.9 2.7 1.9 4.6s-.6 3.5-1.9 4.6c-1.3 1.2-3.2 1.8-5.7 1.8H14c-2.5 0-4.4-.6-5.7-1.8C7 37.6 6.4 36 6.4 34.1s.6-3.5 1.9-4.6c1.3-1.2 3.2-1.8 5.7-1.8zm14.2 4H13c-1.2-.1-2.1.3-2.6 1.1s-.5 1.7 0 2.5 1.4 1.2 2.6 1.1h15.2c1.2.1 2.1-.3 2.6-1.1s.5-1.7 0-2.5c-.6-.8-1.4-1.2-2.6-1.1zM6.6 21.3v-4.8c0-1.9.6-3.5 1.9-4.6 1.3-1.2 3.2-1.8 5.7-1.8H27c2.5 0 4.4.6 5.7 1.8 1.3 1.2 1.9 2.7 1.9 4.6v4.8c0 .3-.1.5-.2.6-.1.1-.3.2-.6.2H7.4c-.3 0-.5-.1-.6-.2-.2-.1-.2-.3-.2-.6zm4.5-3.2H30c.4 0 .7 0 .7-.1.1-.1.1-.3.1-.7v-.8c0-.7-.2-1.3-.7-1.7s-1.2-.7-2.2-.7H13.2c-1 0-1.7.2-2.2.7s-.7 1-.7 1.7v.8c0 .4 0 .6.1.7.1.1.3.1.7.1zM28.3 1.3v2c0 .3-.1.5-.2.6s-.3.2-.6.2l-20.1.2c-.3 0-.5-.1-.6-.2-.2-.1-.2-.3-.2-.6V1.1c0-.3.1-.5.2-.6.1-.1.3-.2.6-.2l20.1.2c.3 0 .5.1.6.2.1.1.2.3.2.6zm4 3.2c-.6 0-1.2-.2-1.6-.7s-.7-.9-.7-1.5.2-1.2.7-1.6 1-.7 1.6-.7c.6 0 1.1.2 1.6.7s.7 1 .7 1.6c0 .6-.2 1.1-.7 1.6s-1 .6-1.6.6z"/></svg>