<svg id="Layer_1" xmlns="http://www.w3.org/2000/svg" viewBox="0 0 112.6 104.2"><style>.st0{fill:#004169}</style><path class="st0" d="M6.8 83.1c-.3 0-.5-.1-.6-.4l-1.8-7.3c0-.1-.1-.1-.1-.1v7.2c0 .4-.1.6-.6.6H2c-.4 0-.6-.1-.6-.6V63.7c0-.4.1-.6.6-.6h1.3c.3 0 .5.1.5.3L7 76.9c0 .1.2.1.2 0l3.2-13.4c.1-.2.2-.3.5-.3h1.3c.4 0 .6.1.6.6v18.8c0 .4-.1.6-.6.6h-1.7c-.4 0-.6-.1-.6-.6v-7.1c0-.1 0-.1-.1-.1l-.1.1-1.8 7.3c-.1.3-.3.4-.6.4h-.5zm18.9 0c-.3 0-.6 0-.6-.4l-.3-1.5c-.1-.6-.1-.6-.6-.6h-2.5c-.5 0-.5 0-.7.6l-.3 1.5c-.1.4-.3.4-.6.4h-1.7c-.3 0-.5 0-.5-.5l3.6-18.9c.1-.4.2-.5.6-.5h1.5c.5 0 .5.1.6.5l3.6 18.9c.1.4-.1.5-.5.5h-1.6zm-4.1-5.8c-.1.6-.1.6.5.6h1.6c.6 0 .6 0 .5-.6L23 70.4c0-.1-.2-.1-.2 0l-1.2 6.9zm15.5-14.2c2.6 0 4.3 1.6 4.3 5.3v.9c0 2.2-.6 3.8-1.7 4.6l1.7 8.5c.1.4 0 .6-.3.6h-1.8c-.3 0-.6 0-.6-.4L37.1 75c0-.2-.1-.3-.3-.3h-.5c-.6 0-.6 0-.6.6v7.2c0 .4-.1.6-.6.6h-1.7c-.4 0-.6-.1-.6-.6V63.7c0-.4.1-.6.6-.6h3.7zm-.8 2.5c-.6 0-.6 0-.6.6v5.4c0 .6 0 .6.6.6h.9c.9 0 1.4-.7 1.4-2v-2.5c0-1.4-.5-2-1.4-2h-.9zm14.2-2.5c2.6 0 4.6 1.7 4.6 5.4V71c0 3.7-1.9 5.4-4.6 5.4h-.9c-.3 0-.3.1-.3.6v5.5c0 .4-.2.6-.6.6H47c-.5 0-.6-.1-.6-.6V63.7c0-.4.1-.6.6-.6h3.5zm-1.1 10.1c0 .6 0 .6.6.6h.6c1 0 1.7-.7 1.7-2V68c0-1.4-.7-2-1.7-2H50c-.6 0-.6 0-.6.6v6.6zm14.9-10.1c2.6 0 4.3 1.6 4.3 5.3v.9c0 2.2-.6 3.8-1.7 4.6l1.7 8.5c.1.4 0 .6-.3.6h-1.8c-.3 0-.6 0-.6-.4L64.3 75c0-.2-.1-.3-.3-.3h-.5c-.6 0-.6 0-.6.6v7.2c0 .4-.1.6-.6.6h-1.7c-.4 0-.6-.1-.6-.6V63.7c0-.4.1-.6.6-.6h3.7zm-.9 2.5c-.6 0-.6 0-.6.6v5.4c0 .6 0 .6.6.6h.9c.9 0 1.4-.7 1.4-2v-2.5c0-1.4-.5-2-1.4-2h-.9zm10.9 17.5c-.4 0-.6-.1-.6-.6V63.7c0-.4.1-.6.6-.6h6c.4 0 .6.1.6.6v1.5c0 .4-.1.6-.6.6h-3.2c-.6 0-.6 0-.6.6v4.3c0 .6 0 .6.6.6h3.2c.4 0 .6.1.6.6v1.5c0 .4-.1.6-.6.6h-3.2c-.6 0-.6 0-.6.6V80c0 .6 0 .6.6.6h3.2c.4 0 .6.1.6.6v1.5c0 .4-.1.6-.6.6h-6zm12.4-1.3c-.9-.9-1.3-2-1.3-3.3 0-.5.1-.6.6-.6h1.7c.4 0 .6.2.6.7 0 1.2.6 2 1.7 2s1.7-.8 1.8-1.7c.2-1.3-.6-2.7-1.8-4.1-1.7-2-4-4.5-4.2-7.2-.1-1.2.3-2.3 1.1-3.2s1.8-1.3 3.1-1.3c1 0 1.9.4 2.7 1.1.8.7 1.3 1.6 1.4 2.7.1.8 0 .9-.6.9h-1.6c-.4 0-.6-.1-.6-.6 0-1-.6-1.5-1.4-1.5-1.1 0-1.5 1-1.4 1.8.1.7.4 1.5 1 2.4.6.9 1.2 1.7 1.9 2.4s1.3 1.6 2 2.7c.6 1.1 1 2.1 1.1 3.1.2 1.3-.2 2.5-1.1 3.6-.9 1.1-2 1.6-3.4 1.6-1.3-.1-2.4-.6-3.3-1.5zm13.6 0c-.9-.9-1.3-2-1.3-3.3 0-.5.1-.6.6-.6h1.7c.4 0 .6.2.6.7 0 1.2.6 2 1.7 2s1.7-.8 1.8-1.7c.2-1.3-.6-2.7-1.8-4.1-1.7-2-4-4.5-4.2-7.2-.1-1.2.3-2.3 1.1-3.2s1.8-1.3 3.1-1.3c1 0 1.9.4 2.7 1.1.8.7 1.3 1.6 1.4 2.7.1.8 0 .9-.6.9h-1.6c-.4 0-.6-.1-.6-.6 0-1-.6-1.5-1.4-1.5-1.1 0-1.5 1-1.4 1.8.1.7.4 1.5 1 2.4.6.9 1.2 1.7 1.9 2.4s1.3 1.6 2 2.7c.6 1.1 1 2.1 1.1 3.1.2 1.3-.2 2.5-1.1 3.6-.9 1.1-2 1.6-3.4 1.6-1.3-.1-2.4-.6-3.3-1.5zM3.9 100.1c0 .2 0 .3-.3.3h-.3c-.2 0-.3-.1-.3-.3l-1.7-8.8c0-.2 0-.3.2-.3h.6c.2 0 .3 0 .3.3l1 5.3c0 .1.1.1.1 0l.8-5.3c0-.2.1-.3.3-.3H5c.2 0 .3.1.3.3l.8 5.3c0 .1.1.1.1 0l1-5.3c.2-.3.2-.3.4-.3h.6c.2 0 .3.1.2.3l-1.7 8.8c0 .2-.1.3-.3.3H6c-.3 0-.3 0-.3-.3L5 94.4c0-.1-.1-.1-.1 0l-1 5.7zm11.7.2c-.2 0-.3-.1-.3-.3v-2.7l-1.5-6.1c0-.2 0-.3.2-.3h.6c.2 0 .3 0 .3.3l.9 3.7c0 .1.1.1.1 0l.9-3.7c.1-.2.1-.3.3-.3h.6c.2 0 .2.1.2.3-1 4-1.5 6-1.5 6.1v2.7c0 .2-.1.3-.3.3h-.5zm9.7-9.3c1.2 0 2.1.8 2.1 2.5v4.3c0 1.7-.9 2.5-2.1 2.5h-1.6c-.2 0-.3-.1-.3-.3v-8.8c0-.2.1-.3.3-.3h1.6zm-.7 8c0 .3 0 .3.3.3h.5c.7 0 1-.5 1-1.4v-4.4c0-1-.3-1.4-1-1.4h-.5c-.3 0-.3 0-.3.3V99zm12.1 1.3c-.2 0-.3 0-.3-.2l-.1-.8c-.1-.3-.1-.3-.3-.3h-1.6c-.3 0-.3 0-.3.3l-.1.8c0 .2-.1.2-.3.2h-.6c-.1 0-.3 0-.2-.2l1.7-8.8c0-.2.1-.2.3-.2h.7c.2 0 .3 0 .3.2l1.7 8.8c0 .2-.1.2-.2.2h-.7zm-2.3-2.6c0 .3 0 .3.2.3h1.2c.3 0 .3 0 .2-.3l-.8-4.5c0-.1-.1-.1-.1 0l-.7 4.5zm10.4 2.4c0 .2 0 .3-.3.3h-.3c-.2 0-.3-.1-.3-.3l-1.7-8.8c0-.2 0-.3.2-.3h.6c.2 0 .3 0 .3.3l1 5.3c0 .1.1.1.1 0l.8-5.3c0-.2.1-.3.3-.3h.5c.2 0 .3.1.3.3l.8 5.3c0 .1.1.1.1 0l1-5.3c.1-.2.1-.3.3-.3h.6c.2 0 .3.1.2.3l-1.7 8.8c0 .2-.1.3-.3.3h-.4c-.3 0-.3 0-.3-.3l-.8-5.6c0-.1-.1-.1-.1 0l-.9 5.6zm13.7.2c-.1 0-.2-.1-.3-.2l-2.1-5.6c0-.1-.1-.1-.1 0v5.5c0 .2-.1.3-.3.3h-.6c-.2 0-.3-.1-.3-.3v-8.8c0-.2.1-.3.3-.3h.5c.1 0 .2.1.3.2l2.1 5.6c0 .1.1.1.1 0v-5.5c0-.2.1-.3.3-.3h.6c.2 0 .3.1.3.3v8.8c0 .2-.1.3-.3.3h-.5zm7.6-.2c0 .2-.1.3-.3.3h-.6c-.2 0-.3-.1-.3-.3v-8.8c0-.2.1-.3.3-.3h.6c.2 0 .3.1.3.3v8.8zm6.9-2.2c0 1 .3 1.4 1 1.4.6 0 .9-.4 1-1.2 0-.3.1-.3.3-.3h.6c.2 0 .3.1.3.4-.1 1.5-1 2.2-2.1 2.2-1.2 0-2.1-.8-2.1-2.5v-4.4c0-1.7.9-2.5 2.1-2.5 1.1 0 2 .7 2.1 2.2 0 .3-.1.4-.3.4h-.6c-.2 0-.3-.1-.3-.3-.1-.8-.4-1.2-1-1.2-.7 0-1 .5-1 1.4v4.4zm8.4-6.6c0-.2.1-.3.3-.3h3.5c.2 0 .3.1.3.3v.5c0 .2-.1.3-.3.3h-.9c-.3 0-.3 0-.3.3v7.7c0 .2-.1.3-.3.3h-.6c-.2 0-.3-.1-.3-.3v-7.7c0-.3 0-.3-.3-.3h-.9c-.2 0-.3-.1-.3-.3v-.5zm12 8.8c0 .2 0 .3-.3.3h-.3c-.2 0-.3-.1-.3-.3l-1.7-8.8c0-.2 0-.3.2-.3h.6c.2 0 .3 0 .3.3l1 5.3c0 .1.1.1.1 0l.8-5.3c0-.2.1-.3.3-.3h.4c.2 0 .3.1.3.3l.8 5.3c0 .1.1.1.1 0l1-5.3c.1-.3.1-.3.3-.3h.6c.2 0 .3.1.2.3l-1.7 8.8c0 .2-.1.3-.3.3h-.4c-.3 0-.3 0-.3-.3l-.8-5.6c0-.1-.1-.1-.1 0l-.8 5.6zm14.1-2.3c0 1.7-.9 2.5-2.1 2.5s-2.1-.8-2.1-2.5v-4.4c0-1.7.9-2.5 2.1-2.5s2.1.8 2.1 2.5v4.4zm-3.2.1c0 1 .3 1.4 1 1.4s1-.5 1-1.4v-4.5c0-1-.3-1.4-1-1.4s-1 .5-1 1.4v4.5zM34.9 35.2h10.8c4.6 0 7.2 1.6 8.2 5 .1.3.3.5.6.5s.5-.2.6-.5c1-3.5 3.6-5 8.2-5h10.8c.2 0 .3-.2.3-.4l-2.3-23.3c0-.2-.2-.3-.3-.3h-3.2l-.2-2.4c0-.2-.2-.3-.3-.3h-4.6c-5.8 0-7.9 2.4-8.1 8L54.9 32c0 .2-.2.4-.4.4s-.4-.2-.4-.4l-.5-15.5c-.2-5.5-2.3-8-8.1-8H41c-.2 0-.3.1-.3.3l-.2 2.4h-3.2c-.2 0-.3.1-.3.3l-2.3 23.3c-.1.2 0 .4.2.4z"/><path class="st0" d="M73.7 39.2H61.1c-.1 0-.3.1-.3.2-.8 2.6-2.8 3.8-6.3 3.8S49 42 48.2 39.4c0-.1-.2-.2-.3-.2H35.3c-.4 0-.7.3-.7.7 0 .3.2.6.6.7l2.9.7c.6 6.8 4.3 9.8 11.9 9.8h9.3c7.6 0 11.2-3 11.9-9.8l2.9-.7c.3-.1.6-.4.6-.7-.3-.4-.6-.7-1-.7zM54.5 9.3c.3 0 .6-.3.7-.6l.5-4.2c1-.1 1.9-.1 2.9 0v1c0 .2.1.3.3.3 2 .1 4 .3 6-.4.2-.1.3-.2.3-.4V2.3c0-.1-.1-.2-.3-.2-1.7.3-3.3 0-5-.3v-1c0-.2-.1-.3-.3-.4-1.8-.4-3.6-.8-5.3-.6-.2 0-.3.2-.3.4v8.1c-.2.7.1 1 .5 1z"/></svg>