<svg id="Warstwa_1" xmlns="http://www.w3.org/2000/svg" viewBox="0 0 450 450"><style>.st0{opacity:5e-2}.st1,.st2{fill:#fff}.st2{opacity:0}</style><g class="st0"><path class="st1" d="M40.4 188.1c-3-.7-4.9-3.6-4.2-6.6.7-3.1 3.6-4.9 6.7-4.2 3 .7 4.8 3.6 4.1 6.7-.6 2.9-3.5 4.8-6.6 4.1zm46.2-53.8c-.4.6-.9.8-1.5.7l-18.8-6.7c-.2-.1-.3-.1-.3.1 0 .1.1.1.1.2L82 139c.8.5.8.9.3 1.7l-1.5 2.2c-.5.8-.9.9-1.7.4L45.5 121c-.8-.5-.9-.9-.3-1.7l1.3-1.9c.5-.8.7-.7 1.3-.6l29.1 10.4c.3.1.5-.2.3-.4l-20.9-22.7c-.3-.4-.3-.8 0-1.4l1.3-1.9c.5-.8.9-.9 1.7-.3L93 122.8c.8.5.9.9.3 1.7l-1.5 2.2c-.5.8-.9.9-1.7.4l-15.8-10.5c-.2-.1-.2-.1-.3.1 0 .1 0 .2.1.2l13.5 14.7c.4.5.4 1 0 1.6l-1 1.1zm40.2-42.7c-.6.5-1 .8-1.6.1l-2.9-2.5c-1-.8-1-.8-1.8-.1l-5.6 4.5c-.9.7-.9.7-.3 1.8l1.9 3.4c.5.8.1 1.1-.5 1.5l-2.1 1.7c-.5.4-.9.7-1.5-.2L92.9 65.3c-.4-.8-.4-1.1.4-1.7l2.6-2.1c.8-.6 1-.6 1.7 0l31.5 26.9c.7.6.5 1-.2 1.5l-2.1 1.7zM111 89c.6 1.1.6 1.1 1.6.3l4.2-3.4c1-.8 1-.8 0-1.6l-15.7-14c-.2-.2-.5 0-.4.3L111 89zm35.1-56.8c5.2-2.1 10.5-.3 13.5 7.1l.6 1.5c1.8 4.3 1.8 7.9 0 10.6 0 0 0 .1.1.1 1.5 2.1 4.9 7.3 10.3 15.5.5.7.4 1.2-.2 1.5l-2.7 1.1c-.7.3-1.1.5-1.6-.3l-9.3-14c-.2-.3-.5-.4-.9-.2l-2.5 1c-1.1.5-1.1.5-.7 1.6l5.8 14.4c.3.7.1 1.3-.7 1.6l-2.5 1c-.9.4-1.2.2-1.6-.7l-15.3-37.4c-.3-.8-.2-1.3.7-1.6l7-2.8zm4 18.7c.5 1.2.5 1.2 1.6.7l2-.8c2.9-1.2 3.5-3.8 1.8-7.9l-.8-2c-1.7-4.1-3.9-5.5-6.8-4.4l-2 .8c-1.1.5-1.1.5-.7 1.6l4.9 12zm53.2-33.1c5.6-.6 10.1 2.7 10.9 10.6l.5 4.6c.8 7.9-2.9 12-8.5 12.6l-2.2.2c-1.2.1-1.2.1-1.1 1.3l1.3 12.4c.1.8-.3 1.3-1.1 1.3l-2.7.3c-1 .1-1.2-.2-1.3-1.1l-4.2-40.2c-.1-.9.2-1.3 1.1-1.4l7.3-.6zm-1.1 22.1c.1 1.3.1 1.3 1.3 1.2l2.2-.2c3.1-.3 4.4-2.7 3.9-7.1l-.5-5.1c-.5-4.4-2.2-6.4-5.3-6.1l-2.2.2c-1.2.1-1.2.1-1.1 1.3l1.7 15.8zM262 20c5.5 1 9 5.4 7.6 13.2l-.3 1.6c-.8 4.6-2.7 7.6-5.7 9v.2c.1 2.6.2 8.8.4 18.6 0 .9-.3 1.3-1 1.1l-2.8-.5c-.7-.1-1.2-.2-1.2-1.1l-.3-16.8c0-.4-.2-.6-.6-.7l-2.7-.5c-1.2-.2-1.2-.2-1.4 1l-2.8 15.2c-.1.8-.6 1.1-1.4 1l-2.6-.5c-1-.2-1.2-.5-1-1.4l7.2-39.7c.2-.9.5-1.2 1.4-1L262 20zm-6.7 17.9c-.2 1.3-.2 1.3 1 1.5l2.2.4c3.1.6 5-1.3 5.8-5.7l.4-2.1c.8-4.3-.3-6.8-3.4-7.3l-2.2-.4c-1.2-.2-1.2-.2-1.4 1l-2.4 12.6zm37 35.8c-.8-.4-1-.8-.6-1.6l17.8-36.3c.4-.8.8-1 1.6-.6l11.6 5.7c.8.4 1 .8.6 1.6l-1 2.1c-.4.8-.8 1-1.6.6l-7-3.4c-1.1-.5-1.1-.5-1.6.6l-4.7 9.6c-.5 1.1-.5 1.1.6 1.6l7 3.4c.8.4 1 .8.6 1.6l-1 2.1c-.4.8-.8 1-1.6.6l-7-3.4c-1.1-.5-1.1-.5-1.6.6L298.5 70c-.5 1.1-.5 1.1.6 1.6l7 3.4c.8.4 1 .8.6 1.6l-1 2.1c-.4.8-.8 1-1.6.6l-11.8-5.6zm39.5 21.2c-.1-2.8.8-5.1 2.7-7.1.7-.8 1.1-.8 1.9-.1l1.9 1.7c.6.5.5 1.1 0 1.9-2.3 2.9-1.6 5.5.1 7.1 2.1 1.8 4.7 1.6 6.5-.1 2.2-2 3-5.8 3-9.9.1-5.9-.5-13.4 3-17.6 1.6-2.1 3.7-3.2 6.3-3.5 2.5-.3 4.8.5 6.9 2.3 1.6 1.4 2.5 3.3 2.8 5.6.3 2.3-.3 4.4-1.7 6.3-1 1.4-1.3 1.5-2.2.6l-1.7-1.5c-.7-.6-.6-.9 0-1.9 1.4-2 1.1-4.3-.4-5.6-1.8-1.6-4.6-1.2-6.1 1-.9 1.3-1.4 3-1.7 5.3-.2 2.4-.3 4.6-.2 6.8.1 2.2 0 4.7-.5 7.3-.4 2.7-1.2 4.9-2.5 6.6-1.6 2.4-4 3.8-6.9 4.2-2.9.4-5.5-.4-7.8-2.4-2.1-1.9-3.3-4.2-3.4-7zm32.3 35.3c.7-2.7 2.2-4.7 4.6-6.1.9-.5 1.3-.5 1.8.4l1.3 2.1c.4.7.2 1.2-.5 1.8-3 2.1-3.1 4.9-1.9 6.8 1.5 2.4 4.1 2.8 6.3 1.7 2.7-1.3 4.5-4.8 5.6-8.6 1.7-5.6 3.2-13 7.8-16.1 2.1-1.5 4.5-2.1 7-1.6 2.5.4 4.5 1.8 6 4.1 1.1 1.8 1.5 3.9 1.1 6.2-.4 2.3-1.5 4.1-3.4 5.6-1.4 1.1-1.7 1-2.3 0l-1.2-2c-.5-.8-.3-1 .5-1.8 1.9-1.6 2.3-3.8 1.2-5.5-1.3-2.1-4.1-2.4-6.2-.7-1.2 1-2.2 2.5-3.1 4.6-.9 2.2-1.5 4.3-2.1 6.5-.5 2.2-1.3 4.5-2.5 6.9-1.1 2.5-2.6 4.3-4.2 5.7-2.2 1.8-4.9 2.5-7.8 2.1-2.9-.4-5.2-1.9-6.8-4.5-1.5-2.4-1.9-5-1.2-7.6zm43.2 47.8c3-.7 6 1.1 6.6 4.1.7 3.1-1.2 6-4.2 6.7-3 .7-5.9-1.2-6.6-4.2-.6-2.9 1.1-5.9 4.2-6.6zM19.9 253.6c-.9 0-1.2.1-1.4-1.2l-.2-1.4c-.2-1 .1-1.2 1-1.6L58 235.5c.8-.3 1.2 0 1.4.8l.4 2.7c.2 1 0 1.2-1 1.6L35.2 249c-.3.1-.2.5.1.5h24.8c1 0 1.3.2 1.4 1.1l.3 1.7c.2.9-.1 1.2-1 1.5l-23.6 7.7c-.3.1-.2.5.1.5l25 .6c1.1.1 1.3.2 1.4 1.2l.4 2.7c.1.8-.2 1.3-1 1.2L22 266.5c-1 0-1.3-.2-1.4-1.2l-.3-2c-.2-1.2 0-1.2 1-1.6l25-7.5c.5-.2.5-.6-.1-.6H19.9zm18.7 64.5c-.4-.8-.3-1.2.5-1.6l11.1-5.7L72 292.1c.6-.5 1.1-.5 1.5.2l1.3 2.6c.5.9.4 1.1-.5 1.8L61 307.9c-.3.3-.1.7.3.6l17-4.2c1-.3 1.3-.2 1.7.7l1.3 2.6c.3.7.1 1.1-.7 1.3-18.3 4.2-27.6 6.4-28 6.6l-11.1 5.7c-.8.4-1.2.3-1.7-.6l-1.2-2.5zm64.2 18.3c3.8 4.1 3.9 9.8-2 15.1l-14.4 13.2c-5.8 5.3-11.4 4.8-15.2.6l-5-5.4c-.6-.7-.6-1.1.1-1.7l29.8-27.3c.7-.6 1.1-.6 1.7.1l5 5.4zm-29.5 22.4c-.9.9-.9.9-.1 1.8l1.5 1.6c2.1 2.3 4.8 1.9 8-1l14.8-13.6c3.2-3 3.8-5.6 1.7-7.9l-1.5-1.6c-.8-.9-.8-.9-1.7-.1l-22.7 20.8zm48.6 47.3c-.6-.4-1-.6-.7-1.5l1.4-3.6c.4-1.2.4-1.2-.5-1.8l-6.1-3.8c-1-.6-1-.6-1.8.3l-2.6 2.9c-.6.7-1 .5-1.6.1l-2.3-1.4c-.6-.4-1-.6-.3-1.4l27.9-30.6c.6-.7.9-.8 1.7-.2l2.8 1.7c.8.5.9.8.6 1.6l-14.8 38.7c-.3.9-.8.8-1.4.3l-2.3-1.3zm-2.9-15.8c-.8.9-.8.9.2 1.6l4.6 2.8c1 .6 1 .6 1.5-.5l7.9-19.5c.1-.3-.2-.5-.4-.3L119 390.3zm49.6 34c-.4.8-.4 1.1-1.7.8l-1.4-.4c-1-.3-1.1-.5-1.1-1.5l2.8-41c0-.8.5-1.1 1.3-.9l2.6.7c1 .2 1.1.5 1.1 1.5l-1.8 24.9c0 .3.4.4.5.1l9.9-22.8c.4-.9.7-1.1 1.6-.8l1.7.4c.9.2 1.1.5 1 1.5l-2.5 24.7c0 .3.4.4.5.1l10.6-22.6c.5-1 .7-1.1 1.7-.8l2.6.7c.8.2 1.1.7.7 1.4l-17.6 37.2c-.4.9-.7 1.1-1.7.8l-2-.5c-1.1-.3-1.1-.5-1.1-1.5l3.1-25.9c.1-.6-.4-.7-.6-.2l-10.2 24.1zm75.7 8.1c-.6 0-1.1-.2-1.3-.6l-11.1-25c-.1-.4-.5-.3-.5 0l1.5 25c.1.9-.2 1.2-1.1 1.3l-2.7.2c-.9.1-1.2-.2-1.3-1.1l-2.5-40.3c-.1-.9.2-1.2 1.1-1.3l2.3-.1c.6-.1 1.1.2 1.3.7l11.1 25c.1.4.5.3.5 0l-1.5-25.1c-.1-.9.2-1.2 1.1-1.3l2.7-.2c.9-.1 1.2.2 1.3 1.1l2.5 40.3c.1.9-.2 1.2-1.1 1.3l-2.3.1zm45.9-10.9c.3.9.1 1.3-.8 1.5l-2.6.8c-.9.3-1.3.1-1.5-.8l-12.2-38.5c-.3-.9-.1-1.3.8-1.5l2.6-.8c.9-.3 1.3-.1 1.5.8l12.2 38.5zm34-26.1c2.3 3.8 4.8 4.8 7.4 3.2 2.3-1.5 2.7-3.7 1.1-6.9-.6-1.1-.6-1.5.2-2l2.3-1.4c.8-.5 1.4-.2 2 .9 3.1 6.1 1.3 10.9-3.1 13.5-4.8 3-10.3 2-14.4-4.8l-10.5-17.1c-4.1-6.7-2.5-12.1 2.3-15 4.4-2.7 9.5-2.2 13.5 3.3.7 1 .7 1.7-.1 2.2l-2.3 1.4c-.8.5-1.2.4-1.9-.7-2.1-2.9-4.4-3.6-6.7-2.1-2.7 1.6-2.8 4.3-.5 8.1l10.7 17.4zm16.3-50.1c-.7-.6-.7-1.1-.1-1.7l10.9-11.6c.6-.7 1.1-.7 1.7-.1l1.7 1.6c.7.6.7 1.1.1 1.7l-2.8 3c-.8.9-.8.9.1 1.7l26 24.3c.7.6.7 1.1.1 1.7l-1.8 2c-.6.7-1.1.7-1.7.1l-26-24.3c-.9-.8-.9-.8-1.7 0l-2.9 3.1c-.6.7-1.1.7-1.7.1l-1.9-1.6zm69.6-27.5c.8.6 1 .6.5 1.8l-.6 1.3c-.5.9-.7 1-1.7.7l-39.7-10.5c-.8-.2-1-.7-.7-1.5l1.2-2.4c.4-.9.7-1 1.7-.8l24.1 6.5c.3.1.5-.3.2-.5l-20.5-14c-.8-.6-.9-.9-.5-1.7l.7-1.6c.4-.8.7-.9 1.7-.7l23.8 7.1c.3.1.5-.3.2-.5l-20.2-14.7c-.8-.7-.9-.9-.5-1.8l1.2-2.4c.4-.8.9-.9 1.6-.4l33.2 24.3c.8.6.9.9.5 1.8l-.9 1.8c-.5 1.1-.7 1-1.7.7l-24.8-8c-.5-.2-.7.3-.3.5l21.5 15zm11.3-76.4c7.8 1 11 5.6 10.2 11.2-.7 5.6-5 9.2-12.8 8.2l-19.9-2.6c-7.8-1-11-5.7-10.2-11.2.7-5.6 5-9.2 12.8-8.2l19.9 2.6zm-1.7 14.4c4.4.6 6.8-.6 7.2-3.8.4-3.1-1.6-4.9-5.9-5.5l-20.4-2.7c-4.4-.6-6.8.7-7.2 3.7-.4 3.1 1.6 4.9 5.9 5.5l20.4 2.8z"/><path class="st2" d="M225 0c30.4 0 59.8 5.9 87.6 17.7 26.8 11.3 50.9 27.6 71.5 48.2 20.7 20.7 36.9 44.7 48.2 71.5C444 165.1 450 194.6 450 225c0 30.4-5.9 59.8-17.7 87.6-11.3 26.8-27.6 50.8-48.2 71.5-20.7 20.7-44.7 36.9-71.5 48.2-27.8 11.8-57.2 17.7-87.6 17.7-30.4 0-59.8-6-87.6-17.7-26.8-11.3-50.9-27.6-71.5-48.2-20.7-20.7-36.9-44.7-48.2-71.5C5.9 284.8 0 255.4 0 225c0-30.4 5.9-59.8 17.7-87.6C29 110.6 45.2 86.6 65.9 65.9c20.7-20.7 44.7-36.9 71.5-48.2C165.2 5.9 194.6 0 225 0"/><path class="st1" d="M146.1 253h43.3c18.6 0 29.1 6.3 33 20.2.3 1.1 1.3 1.8 2.4 1.8 1.1 0 2.1-.8 2.4-1.8 3.9-13.9 14.4-20.2 33-20.2h43.3c.8 0 1.4-.6 1.3-1.4l-9.4-93.5c-.1-.7-.6-1.2-1.3-1.2h-12.9l-.8-9.5c-.1-.7-.6-1.2-1.3-1.2h-18.3c-23.2 0-31.7 9.7-32.4 32l-2 62.1c0 .9-.8 1.6-1.7 1.6-.9 0-1.6-.7-1.7-1.6l-2-62.1c-.7-22.3-9.2-32-32.4-32h-18.3c-.7 0-1.2.5-1.3 1.2l-.8 9.5h-12.9c-.7 0-1.2.5-1.3 1.2l-9.3 93.5c.1.7.7 1.4 1.4 1.4z"/><path class="st1" d="M301.8 269h-50.6c-.6 0-1.1.4-1.2.9-3.1 10.4-11.1 15.1-25.2 15.1s-22.1-4.7-25.2-15.1c-.2-.6-.7-.9-1.2-.9h-50.6c-1.7 0-3 1.3-3 3 0 1.4.9 2.6 2.3 2.9l11.4 2.9c2.5 27.2 17.3 39.3 47.7 39.3h37.4c30.3 0 45.2-12 47.7-39.3l11.5-2.9c1.3-.3 2.3-1.5 2.3-2.9-.3-1.6-1.6-3-3.3-3zm-77-120.1c1.4 0 2.5-1 2.7-2.4l1.9-16.7c3.8-.4 7.7-.3 11.5.1v4.2c0 .7.6 1.3 1.3 1.4 8 .3 16.1 1.1 24.1-1.6.7-.2 1.3-.9 1.3-1.5v-10.8c0-.6-.6-.9-1.3-.7-6.7 1.3-13.4.2-20.1-1.1v-4c0-.7-.6-1.4-1.3-1.6-7.2-1.7-14.3-3.4-21.5-2.3-.7.1-1.3.9-1.3 1.7v32.6c0 1.5 1.2 2.7 2.7 2.7z"/></g></svg>