<svg id="Warstwa_1" xmlns="http://www.w3.org/2000/svg" viewBox="0 0 50 64"><style>.st0{fill:#004069}</style><path class="st0" d="M.4 44h13.5c5.8 0 9.1 2 10.3 6.3.1.3.4.6.8.6s.7-.2.8-.6C27 46 30.2 44.1 36 44.1h13.5c.2 0 .4-.2.4-.4L47 14.5c0-.2-.2-.4-.4-.4h-4l-.2-3c0-.2-.2-.4-.4-.4h-5.7c-7.2 0-9.9 3-10.1 10l-.6 19.4c0 .3-.2.5-.5.5s-.5-.2-.5-.5L24 20.7c-.2-6.9-2.9-10-10.1-10H8c-.2 0-.4.2-.4.4l-.2 3h-4c-.2 0-.4.2-.4.4L0 43.6c0 .2.2.4.4.4z"/><path class="st0" d="M49.1 49H33.3c-.2 0-.3.1-.4.3-1 3.2-3.5 4.7-7.9 4.7s-6.9-1.5-7.9-4.7c-.1-.2-.2-.3-.4-.3H.9c-.5 0-.9.5-.9 1 0 .4.3.8.7.9l3.6.9C5.1 60.3 9.7 64 19.2 64h11.7c9.5 0 14.1-3.7 14.9-12.2l3.6-.9c.4-.1.7-.5.7-.9-.1-.5-.5-1-1-1zM25 11.6c.4 0 .8-.3.8-.7l.6-5.2c1.2-.1 2.4-.1 3.6 0V7c0 .2.2.4.4.4 2.5.1 5 .3 7.5-.5.2-.1.4-.3.4-.5V3c0-.2-.2-.3-.4-.2-2.1.4-4.2.1-6.3-.3V1.2c0-.2-.2-.4-.4-.5C29 .2 26.7-.4 24.5 0c-.2 0-.4.3-.4.5v10.2c.1.6.4.9.9.9z"/></svg>