<?xml version="1.0" encoding="utf-8"?>
<!-- Generator: Adobe Illustrator 22.0.1, SVG Export Plug-In . SVG Version: 6.00 Build 0)  -->
<svg version="1.1" id="Warstwa_1" xmlns="http://www.w3.org/2000/svg" xmlns:xlink="http://www.w3.org/1999/xlink" x="0px" y="0px"
	 viewBox="0 0 60 80" style="enable-background:new 0 0 60 80;" xml:space="preserve">
<g>
	<path d="M29.8,41.1h0.4c12.2,0,16.6-5.1,17-16.9V4.9c0-0.4-0.3-0.7-0.7-0.7h-5.7l-0.3-3.5c0-0.4-0.3-0.6-0.7-0.6h-10
		c-12.2,0-16.7,5.1-17,16.9c-0.1,2.5-0.1,4.9,0,7.3C13.2,36,17.6,41.1,29.8,41.1z M25.2,30.4h9.5c0.4,0,0.8,0.4,0.7,0.8
		C35,33.9,32.8,36,30,36c-2.8,0-5-2-5.4-4.7C24.5,30.8,24.8,30.4,25.2,30.4z"/>
	<path d="M54.7,46.2l-7.5,0v0l-9.3,0c-4,0-5.7,0.2-7.1,4c-0.1,0.4-0.5,0.7-0.9,0.7h0c-0.4,0-0.8-0.3-0.9-0.7c-1.2-3.8-3.2-4-7.2-4
		l-6.2,0l0,0l-10.4,0c-3.1,0-5.2,2.6-5.3,5.7c0,1.8,0.1,4.2,0.3,6.3C1.4,73.1,9.9,80,26.6,80h6.8c16.7,0,25.2-6.9,26.3-21.8
		c0.2-2.1,0.3-4.5,0.3-6.3C60,48.8,57.8,46.2,54.7,46.2z"/>
</g>
</svg>
