<?xml version="1.0" encoding="utf-8"?>
<!-- Generator: Adobe Illustrator 22.0.1, SVG Export Plug-In . SVG Version: 6.00 Build 0)  -->
<svg version="1.1" id="Warstwa_1" xmlns="http://www.w3.org/2000/svg" xmlns:xlink="http://www.w3.org/1999/xlink" x="0px" y="0px"
	 viewBox="0 0 32 100" style="enable-background:new 0 0 32 100;" xml:space="preserve">
<g>
	<path d="M25.9,48.1h-3.5c-2.5,0-4.5,2-4.6,4.4l0,0.2h0l-0.6,18.1h0c0,0.7-0.6,1.2-1.3,1.2c-0.7,0-1.2-0.5-1.3-1.2h0l-0.6-18.4
		C14,50,12,48.1,9.6,48.1H6.1c-1.6,0-3,1.2-3.2,2.9L0.1,78.9c0,0.3,0.2,0.7,0.5,0.8C8.2,83,12.7,92.1,14.5,98.9
		c0.2,0.7,0.8,1.1,1.5,1.1h0c0.7,0,1.3-0.5,1.5-1.1c1.9-6.8,6.4-15.9,13.9-19.2c0.3-0.1,0.5-0.5,0.5-0.8L29.1,51
		C28.9,49.4,27.6,48.1,25.9,48.1z"/>
	<path d="M0,35.6c0,0.8,0.5,1.5,1.3,1.7l2.3,0.6l0.3,2.8c0.2,2,1.9,3.5,3.8,3.5h16.5c2,0,3.6-1.5,3.8-3.5l0.3-2.8l2.3-0.6
		c0.8-0.2,1.3-0.9,1.3-1.7c0-0.9-0.8-1.7-1.7-1.7l-1.5,0l2.2-22c0,0,0,0,0,0l0.9-8.6c0-0.4-0.2-0.7-0.6-0.9C26.9,1,22.3,0.2,17.5,0
		c-0.5,0-1,0-1.5,0c-0.5,0-1,0-1.5,0C9.7,0.2,5.1,1,0.7,2.4C0.4,2.6,0.2,2.9,0.2,3.3l3,30.6l-1.5,0C0.8,33.9,0,34.6,0,35.6z"/>
</g>
</svg>
