<?xml version="1.0" encoding="utf-8"?>
<!-- Generator: Adobe Illustrator 22.0.1, SVG Export Plug-In . SVG Version: 6.00 Build 0)  -->
<svg version="1.1" id="Warstwa_1" xmlns="http://www.w3.org/2000/svg" xmlns:xlink="http://www.w3.org/1999/xlink" x="0px" y="0px"
	 viewBox="0 0 20 20" style="enable-background:new 0 0 20 20;" xml:space="preserve">
<path d="M10,13.3c-1.8,0-3.3-1.5-3.3-3.3c0-1.8,1.5-3.3,3.3-3.3c1.8,0,3.3,1.5,3.3,3.3C13.3,11.8,11.8,13.3,10,13.3 M10,4.9
	c-2.8,0-5.1,2.3-5.1,5.1c0,2.8,2.3,5.1,5.1,5.1c2.8,0,5.1-2.3,5.1-5.1C15.1,7.2,12.8,4.9,10,4.9"/>
<path d="M18.1,14c0,0.6-0.1,1.3-0.3,1.9c-0.3,0.9-1,1.6-1.9,1.9c-0.6,0.2-1.2,0.3-1.9,0.3c-1.1,0-1.4,0.1-4,0.1c-2.7,0-3,0-4-0.1
	c-0.6,0-1.3-0.1-1.9-0.3C3.7,17.6,3.3,17.4,3,17c-0.3-0.3-0.6-0.7-0.7-1.2C2,15.3,1.9,14.7,1.9,14c0-1.1-0.1-1.4-0.1-4
	c0-2.7,0-3,0.1-4c0-0.6,0.1-1.3,0.3-1.9C2.4,3.7,2.6,3.3,3,3c0.3-0.3,0.7-0.6,1.2-0.7C4.7,2,5.3,1.9,6,1.9c1.1,0,1.4-0.1,4-0.1
	c2.7,0,3,0,4,0.1c0.6,0,1.3,0.1,1.9,0.3C16.3,2.4,16.7,2.6,17,3c0.3,0.3,0.6,0.7,0.7,1.2C18,4.7,18.1,5.3,18.1,6
	c0,1.1,0.1,1.4,0.1,4C18.2,12.7,18.2,13,18.1,14 M19.5,3.5c-0.3-0.7-0.6-1.3-1.2-1.8c-0.5-0.5-1.1-0.9-1.8-1.2
	c-0.8-0.3-1.6-0.4-2.4-0.5C13.1,0,12.7,0,10,0C7.3,0,6.9,0,5.9,0.1C5,0.1,4.2,0.2,3.4,0.5C2.8,0.8,2.2,1.2,1.7,1.7
	C1.2,2.2,0.8,2.8,0.5,3.5C0.2,4.2,0.1,5,0.1,5.9C0,6.9,0,7.3,0,10c0,2.7,0,3.1,0.1,4.1c0,0.8,0.2,1.7,0.5,2.4
	c0.3,0.7,0.6,1.3,1.2,1.8c0.5,0.5,1.1,0.9,1.8,1.2c0.8,0.3,1.6,0.4,2.4,0.5C6.9,20,7.3,20,10,20c2.7,0,3.1,0,4.1-0.1
	c0.8,0,1.6-0.2,2.4-0.5c1.3-0.5,2.4-1.6,2.9-2.9c0.3-0.8,0.4-1.6,0.5-2.4c0-1.1,0.1-1.4,0.1-4.1c0-2.7,0-3.1-0.1-4.1
	C19.9,5,19.8,4.2,19.5,3.5"/>
<path d="M15.3,3.5c-0.7,0-1.2,0.5-1.2,1.2c0,0.7,0.5,1.2,1.2,1.2c0.7,0,1.2-0.5,1.2-1.2C16.5,4,16,3.5,15.3,3.5"/>
</svg>
