<?xml version="1.0" encoding="utf-8"?>
<!-- Generator: Adobe Illustrator 22.0.1, SVG Export Plug-In . SVG Version: 6.00 Build 0)  -->
<svg version="1.1" id="Layer_1" xmlns="http://www.w3.org/2000/svg" xmlns:xlink="http://www.w3.org/1999/xlink" x="0px" y="0px"
	 viewBox="0 0 34.7 207.8" style="enable-background:new 0 0 34.7 207.8;" xml:space="preserve">
<style type="text/css">
	.st0{fill:#004169;}
</style>
<g>
	<g>
		<path class="st0" d="M13,203.8h15.2c1.2,0.1,2.1-0.3,2.6-1.1c0.5-0.8,0.5-1.7,0-2.5c-0.5-0.8-1.4-1.2-2.6-1.1h-0.3
			c-0.3,0-0.5-0.1-0.6-0.2c-0.1-0.1-0.2-0.3-0.2-0.6v-2.4c0-0.6,0.3-0.9,1-0.8c2.2,0.2,3.8,0.8,4.9,2c1.1,1.1,1.7,2.6,1.7,4.4
			c0,1.9-0.6,3.5-1.9,4.6c-1.3,1.2-3.2,1.8-5.7,1.8H14c-2.5,0-4.4-0.6-5.7-1.8c-1.3-1.2-1.9-2.7-1.9-4.6c0-1.8,0.6-3.3,1.7-4.4
			c1.1-1.1,2.8-1.8,4.9-2c0.7-0.1,1,0.2,1,0.8v2.4c0,0.3-0.1,0.5-0.2,0.6c-0.1,0.1-0.3,0.2-0.6,0.2H13c-1.2-0.1-2.1,0.3-2.6,1.1
			c-0.5,0.8-0.5,1.7,0,2.5C10.9,203.5,11.8,203.9,13,203.8z"/>
		<path class="st0" d="M34.6,177v2.4c0,0.2,0,0.4,0,0.4c0,0.1-0.1,0.2-0.2,0.3c-0.1,0.1-0.2,0.2-0.4,0.2l-2.2,0.4
			c-0.4,0.1-0.6,0.2-0.7,0.2c-0.1,0.1-0.1,0.3-0.1,0.6v3.6c0,0.4,0,0.6,0.1,0.7c0.1,0.1,0.3,0.2,0.7,0.2l2.2,0.4
			c0.2,0,0.3,0.1,0.4,0.2c0.1,0.1,0.1,0.2,0.2,0.3c0,0.1,0,0.2,0,0.4v2.4c0,0.2,0,0.3,0,0.4c0,0.1-0.1,0.2-0.2,0.2
			c-0.1,0.1-0.3,0.1-0.5,0.1l-26.6-5c-0.3-0.1-0.5-0.1-0.6-0.2c-0.1-0.1-0.1-0.3-0.1-0.6v-2.2c0-0.3,0-0.5,0.1-0.6
			c0.1-0.1,0.3-0.2,0.6-0.2l26.6-5c0.3-0.1,0.4,0,0.5,0.1C34.5,176.5,34.6,176.7,34.6,177z M16.7,183.5l9.7,1.6
			c0.4,0.1,0.6,0.1,0.7,0c0.1-0.1,0.1-0.3,0.1-0.7v-2.2c0-0.4,0-0.6-0.1-0.7c-0.1-0.1-0.3-0.1-0.7,0l-9.7,1.6
			c-0.1,0-0.2,0.1-0.2,0.2C16.6,183.4,16.6,183.5,16.7,183.5z"/>
		<path class="st0" d="M34.6,161.9v8.4c0,0.3-0.1,0.5-0.2,0.6c-0.1,0.1-0.3,0.2-0.6,0.2H7.4c-0.3,0-0.5-0.1-0.6-0.2
			c-0.1-0.1-0.2-0.3-0.2-0.6V168c0-0.3,0.1-0.5,0.2-0.6c0.1-0.1,0.3-0.2,0.6-0.2h9.1l-1.5-1.3c-0.4-0.3-0.5-0.7-0.1-1.1l1.4-1.6
			c0.3-0.4,0.7-0.4,1.1-0.1l4.9,4.1H30c0.4,0,0.7,0,0.7-0.1c0.1-0.1,0.1-0.3,0.1-0.7v-4.4c0-0.3,0.1-0.5,0.2-0.6
			c0.1-0.1,0.3-0.2,0.6-0.2h2.2c0.3,0,0.5,0.1,0.6,0.2C34.5,161.4,34.6,161.6,34.6,161.9z"/>
		<path class="st0" d="M34.6,143.9v2.4c0,0.2,0,0.4,0,0.4c0,0.1-0.1,0.2-0.2,0.3c-0.1,0.1-0.2,0.2-0.4,0.2l-2.2,0.4
			c-0.4,0.1-0.6,0.2-0.7,0.2c-0.1,0.1-0.1,0.3-0.1,0.6v3.6c0,0.4,0,0.6,0.1,0.7c0.1,0.1,0.3,0.2,0.7,0.2l2.2,0.4
			c0.2,0,0.3,0.1,0.4,0.2c0.1,0.1,0.1,0.2,0.2,0.3c0,0.1,0,0.2,0,0.4v2.4c0,0.2,0,0.3,0,0.4c0,0.1-0.1,0.2-0.2,0.2
			c-0.1,0.1-0.3,0.1-0.5,0.1l-26.6-5c-0.3-0.1-0.5-0.1-0.6-0.2c-0.1-0.1-0.1-0.3-0.1-0.6v-2.2c0-0.3,0-0.5,0.1-0.6
			c0.1-0.1,0.3-0.2,0.6-0.2l26.6-5c0.3-0.1,0.4,0,0.5,0.1C34.5,143.4,34.6,143.6,34.6,143.9z M16.7,150.4l9.7,1.6
			c0.4,0.1,0.6,0.1,0.7,0c0.1-0.1,0.1-0.3,0.1-0.7v-2.2c0-0.4,0-0.6-0.1-0.7c-0.1-0.1-0.3-0.1-0.7,0l-9.7,1.6
			c-0.1,0-0.2,0.1-0.2,0.2C16.6,150.3,16.6,150.4,16.7,150.4z"/>
		<path class="st0" d="M34.6,115.8v1.8c0,0.4-0.2,0.7-0.5,0.8l-14.9,5.3c-0.1,0-0.1,0.1-0.2,0.1c0,0.1,0,0.1,0,0.1s0.1,0.1,0.1,0.1
			h14.6c0.3,0,0.5,0.1,0.6,0.2c0.1,0.1,0.2,0.3,0.2,0.6v2.4c0,0.3-0.1,0.5-0.2,0.6c-0.1,0.1-0.3,0.2-0.6,0.2H7.4
			c-0.3,0-0.5-0.1-0.6-0.2c-0.1-0.1-0.2-0.3-0.2-0.6v-1.8c0-0.4,0.2-0.7,0.5-0.8l14.9-5.3c0.1,0,0.1-0.1,0.2-0.1c0-0.1,0-0.1,0-0.1
			S22.1,119,22,119H7.4c-0.3,0-0.5-0.1-0.6-0.2c-0.1-0.1-0.2-0.3-0.2-0.6v-2.4c0-0.3,0.1-0.5,0.2-0.6c0.1-0.1,0.3-0.2,0.6-0.2h26.4
			c0.3,0,0.5,0.1,0.6,0.2C34.5,115.3,34.6,115.5,34.6,115.8z"/>
		<path class="st0" d="M34.6,96.4v2.4c0,0.2,0,0.4,0,0.4c0,0.1-0.1,0.2-0.2,0.3c-0.1,0.1-0.2,0.2-0.4,0.2l-2.2,0.4
			c-0.4,0.1-0.6,0.2-0.7,0.2c-0.1,0.1-0.1,0.3-0.1,0.6v3.6c0,0.4,0,0.6,0.1,0.7c0.1,0.1,0.3,0.2,0.7,0.2l2.2,0.4
			c0.2,0,0.3,0.1,0.4,0.2c0.1,0.1,0.1,0.2,0.2,0.3c0,0.1,0,0.2,0,0.4v2.4c0,0.2,0,0.3,0,0.4c0,0.1-0.1,0.2-0.2,0.2
			c-0.1,0.1-0.3,0.1-0.5,0.1l-26.6-5c-0.3-0.1-0.5-0.1-0.6-0.2c-0.1-0.1-0.1-0.3-0.1-0.6v-2.2c0-0.3,0-0.5,0.1-0.6
			c0.1-0.1,0.3-0.2,0.6-0.2l26.6-5c0.3-0.1,0.4,0,0.5,0.1C34.5,95.9,34.6,96.1,34.6,96.4z M16.7,102.9l9.7,1.6
			c0.4,0.1,0.6,0.1,0.7,0c0.1-0.1,0.1-0.3,0.1-0.7v-2.2c0-0.4,0-0.6-0.1-0.7c-0.1-0.1-0.3-0.1-0.7,0l-9.7,1.6
			c-0.1,0-0.2,0.1-0.2,0.2C16.6,102.8,16.6,102.9,16.7,102.9z"/>
		<path class="st0" d="M6.6,89.8V85c0-1.9,0.6-3.5,1.9-4.6c1.3-1.2,3.2-1.8,5.7-1.8h3.5c2.5,0,4.4,0.6,5.7,1.8
			c1.3,1.2,1.9,2.7,1.9,4.6v1.2c0,0.2,0.1,0.3,0.2,0.3c0.1,0,0.3,0.1,0.6,0.1h7.7c0.5,0,0.8,0.3,0.8,0.8v2.4c0,0.3-0.1,0.5-0.2,0.6
			c-0.1,0.1-0.3,0.2-0.6,0.2H7.4c-0.3,0-0.5-0.1-0.6-0.2C6.6,90.3,6.6,90.1,6.6,89.8z M11.1,86.6h9.5c0.4,0,0.7,0,0.7-0.1
			c0.1-0.1,0.1-0.3,0.1-0.7V85c0-0.7-0.2-1.3-0.7-1.7s-1.2-0.7-2.2-0.7h-5.4c-1,0-1.7,0.2-2.2,0.7s-0.7,1-0.7,1.7v0.8
			c0,0.4,0,0.6,0.1,0.7C10.5,86.5,10.7,86.6,11.1,86.6z"/>
		<path class="st0" d="M6.6,72.6v-5.2c0-1.9,0.6-3.4,1.8-4.4c1.2-1.1,3.1-1.6,5.6-1.6h1.3c3.1,0,5.3,0.8,6.5,2.4l11.9-2.4
			c0.6-0.1,0.8,0,0.8,0.5v2.5c0,0.2,0,0.4,0,0.4c0,0.1-0.1,0.2-0.2,0.3c-0.1,0.1-0.2,0.2-0.4,0.2l-10.8,2c-0.2,0-0.4,0.2-0.4,0.5
			v0.8c0,0.4,0,0.6,0.1,0.7c0.1,0.1,0.3,0.1,0.7,0.1h10.1c0.3,0,0.5,0.1,0.6,0.2c0.1,0.1,0.2,0.3,0.2,0.6v2.4c0,0.3-0.1,0.5-0.2,0.6
			c-0.1,0.1-0.3,0.2-0.6,0.2H7.4c-0.3,0-0.5-0.1-0.6-0.2C6.6,73.1,6.6,72.9,6.6,72.6z M10.1,67.4v1.2c0,0.4,0,0.6,0.1,0.7
			c0.1,0.1,0.3,0.1,0.7,0.1h7.6c0.4,0,0.6,0,0.7-0.1c0.1-0.1,0.1-0.3,0.1-0.7v-1.2c0-1.3-0.9-2-2.8-2H13C11,65.4,10.1,66,10.1,67.4z
			"/>
		<path class="st0" d="M10.7,45.5l19.8,6.7c0.2,0.1,0.3,0,0.3-0.2v-5.8c0-0.3,0.1-0.5,0.2-0.6c0.1-0.1,0.3-0.2,0.6-0.2h2.2
			c0.3,0,0.5,0.1,0.6,0.2c0.1,0.1,0.2,0.3,0.2,0.6v9.6c0,0.3-0.1,0.5-0.2,0.6c-0.1,0.1-0.3,0.2-0.6,0.2h-2.4c-0.3,0-0.6-0.1-0.9-0.2
			l-19.8-6.7c-0.2-0.1-0.3,0-0.3,0.2v5.8c0,0.3-0.1,0.5-0.2,0.6s-0.3,0.2-0.6,0.2H7.4c-0.3,0-0.5-0.1-0.6-0.2
			c-0.1-0.1-0.2-0.3-0.2-0.6v-9.6c0-0.3,0.1-0.5,0.2-0.6c0.1-0.1,0.3-0.2,0.6-0.2h2.4C10.1,45.3,10.4,45.4,10.7,45.5z"/>
		<path class="st0" d="M5.2,33.3v1.4c0,0.3-0.1,0.4-0.4,0.4H0.8c-0.3,0-0.5-0.1-0.7-0.2C0.1,34.9,0,34.6,0,34.3V32
			c0-0.6,0.4-0.8,1.1-0.5l3.4,1.2c0.3,0.1,0.5,0.2,0.6,0.3C5.1,33,5.2,33.1,5.2,33.3z M14,27.7h13.1c2.5,0,4.4,0.6,5.7,1.8
			c1.3,1.2,1.9,2.7,1.9,4.6s-0.6,3.5-1.9,4.6c-1.3,1.2-3.2,1.8-5.7,1.8H14c-2.5,0-4.4-0.6-5.7-1.8C7,37.6,6.4,36,6.4,34.1
			s0.6-3.5,1.9-4.6C9.6,28.3,11.5,27.7,14,27.7z M28.2,31.7H13c-1.2-0.1-2.1,0.3-2.6,1.1c-0.5,0.8-0.5,1.7,0,2.5
			c0.5,0.8,1.4,1.2,2.6,1.1h15.2c1.2,0.1,2.1-0.3,2.6-1.1c0.5-0.8,0.5-1.7,0-2.5C30.2,32,29.4,31.6,28.2,31.7z"/>
		<path class="st0" d="M6.6,21.3v-4.8c0-1.9,0.6-3.5,1.9-4.6c1.3-1.2,3.2-1.8,5.7-1.8H27c2.5,0,4.4,0.6,5.7,1.8
			c1.3,1.2,1.9,2.7,1.9,4.6v4.8c0,0.3-0.1,0.5-0.2,0.6c-0.1,0.1-0.3,0.2-0.6,0.2H7.4c-0.3,0-0.5-0.1-0.6-0.2
			C6.6,21.8,6.6,21.6,6.6,21.3z M11.1,18.1H30c0.4,0,0.7,0,0.7-0.1c0.1-0.1,0.1-0.3,0.1-0.7v-0.8c0-0.7-0.2-1.3-0.7-1.7
			s-1.2-0.7-2.2-0.7H13.2c-1,0-1.7,0.2-2.2,0.7s-0.7,1-0.7,1.7v0.8c0,0.4,0,0.6,0.1,0.7C10.5,18.1,10.7,18.1,11.1,18.1z"/>
		<path class="st0" d="M28.3,1.3v2c0,0.3-0.1,0.5-0.2,0.6s-0.3,0.2-0.6,0.2L7.4,4.3c-0.3,0-0.5-0.1-0.6-0.2C6.6,4,6.6,3.8,6.6,3.5
			V1.1c0-0.3,0.1-0.5,0.2-0.6c0.1-0.1,0.3-0.2,0.6-0.2l20.1,0.2c0.3,0,0.5,0.1,0.6,0.2C28.2,0.8,28.3,1,28.3,1.3z M32.3,4.5
			c-0.6,0-1.2-0.2-1.6-0.7S30,2.9,30,2.3c0-0.6,0.2-1.2,0.7-1.6s1-0.7,1.6-0.7c0.6,0,1.1,0.2,1.6,0.7s0.7,1,0.7,1.6
			c0,0.6-0.2,1.1-0.7,1.6S32.9,4.5,32.3,4.5z"/>
	</g>
</g>
</svg>
