<?xml version="1.0" encoding="utf-8"?>
<!-- Generator: Adobe Illustrator 22.0.1, SVG Export Plug-In . SVG Version: 6.00 Build 0)  -->
<svg version="1.1" id="Warstwa_1" xmlns="http://www.w3.org/2000/svg" xmlns:xlink="http://www.w3.org/1999/xlink" x="0px" y="0px"
	 viewBox="0 0 450 450" style="enable-background:new 0 0 450 450;" xml:space="preserve">
<style type="text/css">
	.st0{opacity:5.000000e-02;}
	.st1{fill:#FFFFFF;}
	.st2{opacity:0;fill:#FFFFFF;}
</style>
<g class="st0">
	<g>
		<g>
			<g>
				<g>
					<path class="st1" d="M40.4,188.1c-3-0.7-4.9-3.6-4.2-6.6c0.7-3.1,3.6-4.9,6.7-4.2c3,0.7,4.8,3.6,4.1,6.7
						C46.4,186.9,43.5,188.8,40.4,188.1z"/>
					<path class="st1" d="M86.6,134.3c-0.4,0.6-0.9,0.8-1.5,0.7l-18.8-6.7c-0.2-0.1-0.3-0.1-0.3,0.1c0,0.1,0.1,0.1,0.1,0.2L82,139
						c0.8,0.5,0.8,0.9,0.3,1.7l-1.5,2.2c-0.5,0.8-0.9,0.9-1.7,0.4L45.5,121c-0.8-0.5-0.9-0.9-0.3-1.7l1.3-1.9
						c0.5-0.8,0.7-0.7,1.3-0.6l29.1,10.4c0.3,0.1,0.5-0.2,0.3-0.4l-20.9-22.7c-0.3-0.4-0.3-0.8,0-1.4l1.3-1.9
						c0.5-0.8,0.9-0.9,1.7-0.3l33.7,22.3c0.8,0.5,0.9,0.9,0.3,1.7l-1.5,2.2c-0.5,0.8-0.9,0.9-1.7,0.4l-15.8-10.5
						c-0.2-0.1-0.2-0.1-0.3,0.1c0,0.1,0,0.2,0.1,0.2l13.5,14.7c0.4,0.5,0.4,1,0,1.6L86.6,134.3z"/>
					<path class="st1" d="M126.8,91.6c-0.6,0.5-1,0.8-1.6,0.1l-2.9-2.5c-1-0.8-1-0.8-1.8-0.1l-5.6,4.5c-0.9,0.7-0.9,0.7-0.3,1.8
						l1.9,3.4c0.5,0.8,0.1,1.1-0.5,1.5l-2.1,1.7c-0.5,0.4-0.9,0.7-1.5-0.2L92.9,65.3c-0.4-0.8-0.4-1.1,0.4-1.7l2.6-2.1
						c0.8-0.6,1-0.6,1.7,0l31.5,26.9c0.7,0.6,0.5,1-0.2,1.5L126.8,91.6z M111,89c0.6,1.1,0.6,1.1,1.6,0.3l4.2-3.4c1-0.8,1-0.8,0-1.6
						l-15.7-14c-0.2-0.2-0.5,0-0.4,0.3L111,89z"/>
					<path class="st1" d="M146.1,32.2c5.2-2.1,10.5-0.3,13.5,7.1l0.6,1.5c1.8,4.3,1.8,7.9,0,10.6c0,0,0,0.1,0.1,0.1
						c1.5,2.1,4.9,7.3,10.3,15.5c0.5,0.7,0.4,1.2-0.2,1.5l-2.7,1.1c-0.7,0.3-1.1,0.5-1.6-0.3l-9.3-14c-0.2-0.3-0.5-0.4-0.9-0.2
						l-2.5,1c-1.1,0.5-1.1,0.5-0.7,1.6l5.8,14.4c0.3,0.7,0.1,1.3-0.7,1.6l-2.5,1c-0.9,0.4-1.2,0.2-1.6-0.7l-15.3-37.4
						c-0.3-0.8-0.2-1.3,0.7-1.6L146.1,32.2z M150.1,50.9c0.5,1.2,0.5,1.2,1.6,0.7l2-0.8c2.9-1.2,3.5-3.8,1.8-7.9l-0.8-2
						c-1.7-4.1-3.9-5.5-6.8-4.4l-2,0.8c-1.1,0.5-1.1,0.5-0.7,1.6L150.1,50.9z"/>
					<path class="st1" d="M203.3,17.8c5.6-0.6,10.1,2.7,10.9,10.6l0.5,4.6c0.8,7.9-2.9,12-8.5,12.6l-2.2,0.2
						c-1.2,0.1-1.2,0.1-1.1,1.3l1.3,12.4c0.1,0.8-0.3,1.3-1.1,1.3l-2.7,0.3c-1,0.1-1.2-0.2-1.3-1.1l-4.2-40.2
						c-0.1-0.9,0.2-1.3,1.1-1.4L203.3,17.8z M202.2,39.9c0.1,1.3,0.1,1.3,1.3,1.2l2.2-0.2c3.1-0.3,4.4-2.7,3.9-7.1l-0.5-5.1
						c-0.5-4.4-2.2-6.4-5.3-6.1l-2.2,0.2c-1.2,0.1-1.2,0.1-1.1,1.3L202.2,39.9z"/>
					<path class="st1" d="M262,20c5.5,1,9,5.4,7.6,13.2l-0.3,1.6c-0.8,4.6-2.7,7.6-5.7,9c0,0,0,0.1,0,0.2c0.1,2.6,0.2,8.8,0.4,18.6
						c0,0.9-0.3,1.3-1,1.1l-2.8-0.5c-0.7-0.1-1.2-0.2-1.2-1.1l-0.3-16.8c0-0.4-0.2-0.6-0.6-0.7l-2.7-0.5c-1.2-0.2-1.2-0.2-1.4,1
						l-2.8,15.2c-0.1,0.8-0.6,1.1-1.4,1l-2.6-0.5c-1-0.2-1.2-0.5-1-1.4l7.2-39.7c0.2-0.9,0.5-1.2,1.4-1L262,20z M255.3,37.9
						c-0.2,1.3-0.2,1.3,1,1.5l2.2,0.4c3.1,0.6,5-1.3,5.8-5.7l0.4-2.1c0.8-4.3-0.3-6.8-3.4-7.3l-2.2-0.4c-1.2-0.2-1.2-0.2-1.4,1
						L255.3,37.9z"/>
					<path class="st1" d="M292.3,73.7c-0.8-0.4-1-0.8-0.6-1.6l17.8-36.3c0.4-0.8,0.8-1,1.6-0.6l11.6,5.7c0.8,0.4,1,0.8,0.6,1.6
						l-1,2.1c-0.4,0.8-0.8,1-1.6,0.6l-7-3.4c-1.1-0.5-1.1-0.5-1.6,0.6l-4.7,9.6c-0.5,1.1-0.5,1.1,0.6,1.6l7,3.4
						c0.8,0.4,1,0.8,0.6,1.6l-1,2.1c-0.4,0.8-0.8,1-1.6,0.6l-7-3.4c-1.1-0.5-1.1-0.5-1.6,0.6L298.5,70c-0.5,1.1-0.5,1.1,0.6,1.6
						l7,3.4c0.8,0.4,1,0.8,0.6,1.6l-1,2.1c-0.4,0.8-0.8,1-1.6,0.6L292.3,73.7z"/>
					<path class="st1" d="M331.8,94.9c-0.1-2.8,0.8-5.1,2.7-7.1c0.7-0.8,1.1-0.8,1.9-0.1l1.9,1.7c0.6,0.5,0.5,1.1,0,1.9
						c-2.3,2.9-1.6,5.5,0.1,7.1c2.1,1.8,4.7,1.6,6.5-0.1c2.2-2,3-5.8,3-9.9c0.1-5.9-0.5-13.4,3-17.6c1.6-2.1,3.7-3.2,6.3-3.5
						c2.5-0.3,4.8,0.5,6.9,2.3c1.6,1.4,2.5,3.3,2.8,5.6c0.3,2.3-0.3,4.4-1.7,6.3c-1,1.4-1.3,1.5-2.2,0.6l-1.7-1.5
						c-0.7-0.6-0.6-0.9,0-1.9c1.4-2,1.1-4.3-0.4-5.6c-1.8-1.6-4.6-1.2-6.1,1c-0.9,1.3-1.4,3-1.7,5.3c-0.2,2.4-0.3,4.6-0.2,6.8
						c0.1,2.2,0,4.7-0.5,7.3c-0.4,2.7-1.2,4.9-2.5,6.6c-1.6,2.4-4,3.8-6.9,4.2c-2.9,0.4-5.5-0.4-7.8-2.4
						C333.1,100,331.9,97.7,331.8,94.9z"/>
					<path class="st1" d="M364.1,130.2c0.7-2.7,2.2-4.7,4.6-6.1c0.9-0.5,1.3-0.5,1.8,0.4l1.3,2.1c0.4,0.7,0.2,1.2-0.5,1.8
						c-3,2.1-3.1,4.9-1.9,6.8c1.5,2.4,4.1,2.8,6.3,1.7c2.7-1.3,4.5-4.8,5.6-8.6c1.7-5.6,3.2-13,7.8-16.1c2.1-1.5,4.5-2.1,7-1.6
						c2.5,0.4,4.5,1.8,6,4.1c1.1,1.8,1.5,3.9,1.1,6.2c-0.4,2.3-1.5,4.1-3.4,5.6c-1.4,1.1-1.7,1-2.3,0l-1.2-2c-0.5-0.8-0.3-1,0.5-1.8
						c1.9-1.6,2.3-3.8,1.2-5.5c-1.3-2.1-4.1-2.4-6.2-0.7c-1.2,1-2.2,2.5-3.1,4.6c-0.9,2.2-1.5,4.3-2.1,6.5c-0.5,2.2-1.3,4.5-2.5,6.9
						c-1.1,2.5-2.6,4.3-4.2,5.7c-2.2,1.8-4.9,2.5-7.8,2.1c-2.9-0.4-5.2-1.9-6.8-4.5C363.8,135.4,363.4,132.8,364.1,130.2z"/>
					<path class="st1" d="M407.3,178c3-0.7,6,1.1,6.6,4.1c0.7,3.1-1.2,6-4.2,6.7c-3,0.7-5.9-1.2-6.6-4.2
						C402.5,181.7,404.2,178.7,407.3,178z"/>
				</g>
				<g>
					<path class="st1" d="M19.9,253.6c-0.9,0-1.2,0.1-1.4-1.2l-0.2-1.4c-0.2-1,0.1-1.2,1-1.6l38.7-13.9c0.8-0.3,1.2,0,1.4,0.8
						l0.4,2.7c0.2,1,0,1.2-1,1.6L35.2,249c-0.3,0.1-0.2,0.5,0.1,0.5l24.8,0c1,0,1.3,0.2,1.4,1.1l0.3,1.7c0.2,0.9-0.1,1.2-1,1.5
						l-23.6,7.7c-0.3,0.1-0.2,0.5,0.1,0.5l25,0.6c1.1,0.1,1.3,0.2,1.4,1.2l0.4,2.7c0.1,0.8-0.2,1.3-1,1.2l-41.1-1.2
						c-1,0-1.3-0.2-1.4-1.2l-0.3-2c-0.2-1.2,0-1.2,1-1.6l25-7.5c0.5-0.2,0.5-0.6-0.1-0.6L19.9,253.6z"/>
					<path class="st1" d="M38.6,318.1c-0.4-0.8-0.3-1.2,0.5-1.6l11.1-5.7l21.8-18.7c0.6-0.5,1.1-0.5,1.5,0.2l1.3,2.6
						c0.5,0.9,0.4,1.1-0.5,1.8L61,307.9c-0.3,0.3-0.1,0.7,0.3,0.6l17-4.2c1-0.3,1.3-0.2,1.7,0.7l1.3,2.6c0.3,0.7,0.1,1.1-0.7,1.3
						c-18.3,4.2-27.6,6.4-28,6.6l-11.1,5.7c-0.8,0.4-1.2,0.3-1.7-0.6L38.6,318.1z"/>
					<path class="st1" d="M102.8,336.4c3.8,4.1,3.9,9.8-2,15.1l-14.4,13.2c-5.8,5.3-11.4,4.8-15.2,0.6l-5-5.4
						c-0.6-0.7-0.6-1.1,0.1-1.7l29.8-27.3c0.7-0.6,1.1-0.6,1.7,0.1L102.8,336.4z M73.3,358.8c-0.9,0.9-0.9,0.9-0.1,1.8l1.5,1.6
						c2.1,2.3,4.8,1.9,8-1l14.8-13.6c3.2-3,3.8-5.6,1.7-7.9l-1.5-1.6c-0.8-0.9-0.8-0.9-1.7-0.1L73.3,358.8z"/>
					<path class="st1" d="M121.9,406.1c-0.6-0.4-1-0.6-0.7-1.5l1.4-3.6c0.4-1.2,0.4-1.2-0.5-1.8l-6.1-3.8c-1-0.6-1-0.6-1.8,0.3
						l-2.6,2.9c-0.6,0.7-1,0.5-1.6,0.1l-2.3-1.4c-0.6-0.4-1-0.6-0.3-1.4l27.9-30.6c0.6-0.7,0.9-0.8,1.7-0.2l2.8,1.7
						c0.8,0.5,0.9,0.8,0.6,1.6l-14.8,38.7c-0.3,0.9-0.8,0.8-1.4,0.3L121.9,406.1z M119,390.3c-0.8,0.9-0.8,0.9,0.2,1.6l4.6,2.8
						c1,0.6,1,0.6,1.5-0.5l7.9-19.5c0.1-0.3-0.2-0.5-0.4-0.3L119,390.3z"/>
					<path class="st1" d="M168.6,424.3c-0.4,0.8-0.4,1.1-1.7,0.8l-1.4-0.4c-1-0.3-1.1-0.5-1.1-1.5l2.8-41c0-0.8,0.5-1.1,1.3-0.9
						l2.6,0.7c1,0.2,1.1,0.5,1.1,1.5l-1.8,24.9c0,0.3,0.4,0.4,0.5,0.1l9.9-22.8c0.4-0.9,0.7-1.1,1.6-0.8l1.7,0.4
						c0.9,0.2,1.1,0.5,1,1.5l-2.5,24.7c0,0.3,0.4,0.4,0.5,0.1l10.6-22.6c0.5-1,0.7-1.1,1.7-0.8l2.6,0.7c0.8,0.2,1.1,0.7,0.7,1.4
						l-17.6,37.2c-0.4,0.9-0.7,1.1-1.7,0.8l-2-0.5c-1.1-0.3-1.1-0.5-1.1-1.5l3.1-25.9c0.1-0.6-0.4-0.7-0.6-0.2L168.6,424.3z"/>
					<path class="st1" d="M244.3,432.4c-0.6,0-1.1-0.2-1.3-0.6l-11.1-25c-0.1-0.4-0.5-0.3-0.5,0l1.5,25c0.1,0.9-0.2,1.2-1.1,1.3
						l-2.7,0.2c-0.9,0.1-1.2-0.2-1.3-1.1l-2.5-40.3c-0.1-0.9,0.2-1.2,1.1-1.3l2.3-0.1c0.6-0.1,1.1,0.2,1.3,0.7l11.1,25
						c0.1,0.4,0.5,0.3,0.5,0l-1.5-25.1c-0.1-0.9,0.2-1.2,1.1-1.3l2.7-0.2c0.9-0.1,1.2,0.2,1.3,1.1l2.5,40.3c0.1,0.9-0.2,1.2-1.1,1.3
						L244.3,432.4z"/>
					<path class="st1" d="M290.2,421.5c0.3,0.9,0.1,1.3-0.8,1.5l-2.6,0.8c-0.9,0.3-1.3,0.1-1.5-0.8l-12.2-38.5
						c-0.3-0.9-0.1-1.3,0.8-1.5l2.6-0.8c0.9-0.3,1.3-0.1,1.5,0.8L290.2,421.5z"/>
					<path class="st1" d="M324.2,395.4c2.3,3.8,4.8,4.8,7.4,3.2c2.3-1.5,2.7-3.7,1.1-6.9c-0.6-1.1-0.6-1.5,0.2-2l2.3-1.4
						c0.8-0.5,1.4-0.2,2,0.9c3.1,6.1,1.3,10.9-3.1,13.5c-4.8,3-10.3,2-14.4-4.8l-10.5-17.1c-4.1-6.7-2.5-12.1,2.3-15
						c4.4-2.7,9.5-2.2,13.5,3.3c0.7,1,0.7,1.7-0.1,2.2l-2.3,1.4c-0.8,0.5-1.2,0.4-1.9-0.7c-2.1-2.9-4.4-3.6-6.7-2.1
						c-2.7,1.6-2.8,4.3-0.5,8.1L324.2,395.4z"/>
					<path class="st1" d="M340.5,345.3c-0.7-0.6-0.7-1.1-0.1-1.7l10.9-11.6c0.6-0.7,1.1-0.7,1.7-0.1l1.7,1.6
						c0.7,0.6,0.7,1.1,0.1,1.7l-2.8,3c-0.8,0.9-0.8,0.9,0.1,1.7l26,24.3c0.7,0.6,0.7,1.1,0.1,1.7l-1.8,2c-0.6,0.7-1.1,0.7-1.7,0.1
						l-26-24.3c-0.9-0.8-0.9-0.8-1.7,0l-2.9,3.1c-0.6,0.7-1.1,0.7-1.7,0.1L340.5,345.3z"/>
					<path class="st1" d="M410.1,317.8c0.8,0.6,1,0.6,0.5,1.8l-0.6,1.3c-0.5,0.9-0.7,1-1.7,0.7l-39.7-10.5c-0.8-0.2-1-0.7-0.7-1.5
						l1.2-2.4c0.4-0.9,0.7-1,1.7-0.8l24.1,6.5c0.3,0.1,0.5-0.3,0.2-0.5l-20.5-14c-0.8-0.6-0.9-0.9-0.5-1.7l0.7-1.6
						c0.4-0.8,0.7-0.9,1.7-0.7l23.8,7.1c0.3,0.1,0.5-0.3,0.2-0.5l-20.2-14.7c-0.8-0.7-0.9-0.9-0.5-1.8l1.2-2.4
						c0.4-0.8,0.9-0.9,1.6-0.4l33.2,24.3c0.8,0.6,0.9,0.9,0.5,1.8l-0.9,1.8c-0.5,1.1-0.7,1-1.7,0.7l-24.8-8
						c-0.5-0.2-0.7,0.3-0.3,0.5L410.1,317.8z"/>
					<path class="st1" d="M421.4,241.4c7.8,1,11,5.6,10.2,11.2c-0.7,5.6-5,9.2-12.8,8.2l-19.9-2.6c-7.8-1-11-5.7-10.2-11.2
						c0.7-5.6,5-9.2,12.8-8.2L421.4,241.4z M419.7,255.8c4.4,0.6,6.8-0.6,7.2-3.8c0.4-3.1-1.6-4.9-5.9-5.5l-20.4-2.7
						c-4.4-0.6-6.8,0.7-7.2,3.7c-0.4,3.1,1.6,4.9,5.9,5.5L419.7,255.8z"/>
				</g>
				<path class="st2" d="M225,0c30.4,0,59.8,5.9,87.6,17.7c26.8,11.3,50.9,27.6,71.5,48.2c20.7,20.7,36.9,44.7,48.2,71.5
					c11.7,27.7,17.7,57.2,17.7,87.6c0,30.4-5.9,59.8-17.7,87.6c-11.3,26.8-27.6,50.8-48.2,71.5c-20.7,20.7-44.7,36.9-71.5,48.2
					C284.8,444.1,255.4,450,225,450c-30.4,0-59.8-6-87.6-17.7c-26.8-11.3-50.9-27.6-71.5-48.2c-20.7-20.7-36.9-44.7-48.2-71.5
					C5.9,284.8,0,255.4,0,225c0-30.4,5.9-59.8,17.7-87.6C29,110.6,45.2,86.6,65.9,65.9c20.7-20.7,44.7-36.9,71.5-48.2
					C165.2,5.9,194.6,0,225,0"/>
				<g>
					<path class="st1" d="M146.1,253l43.3,0c18.6,0,29.1,6.3,33,20.2c0.3,1.1,1.3,1.8,2.4,1.8h0c1.1,0,2.1-0.8,2.4-1.8
						c3.9-13.9,14.4-20.2,33-20.2l43.3,0c0.8,0,1.4-0.6,1.3-1.4l-9.4-93.5c-0.1-0.7-0.6-1.2-1.3-1.2h-12.9l-0.8-9.5
						c-0.1-0.7-0.6-1.2-1.3-1.2h-18.3c-23.2,0-31.7,9.7-32.4,32l-2,62.1h0c0,0.9-0.8,1.6-1.7,1.6c-0.9,0-1.6-0.7-1.7-1.6h0l-2-62.1
						c-0.7-22.3-9.2-32-32.4-32h-18.3c-0.7,0-1.2,0.5-1.3,1.2l-0.8,9.5h-12.9c-0.7,0-1.2,0.5-1.3,1.2l-9.3,93.5
						C144.8,252.3,145.4,253,146.1,253z"/>
					<path class="st1" d="M301.8,269l-50.6,0c-0.6,0-1.1,0.4-1.2,0.9c-3.1,10.4-11.1,15.1-25.2,15.1h0c-14.1,0-22.1-4.7-25.2-15.1
						c-0.2-0.6-0.7-0.9-1.2-0.9h-50.6c-1.7,0-3,1.3-3,3c0,1.4,0.9,2.6,2.3,2.9l11.4,2.9c2.5,27.2,17.3,39.3,47.7,39.3h37.4
						c30.3,0,45.2-12,47.7-39.3l11.5-2.9c1.3-0.3,2.3-1.5,2.3-2.9C304.8,270.4,303.5,269,301.8,269z"/>
					<path class="st1" d="M224.8,148.9c1.4,0,2.5-1,2.7-2.4l1.9-16.7c3.8-0.4,7.7-0.3,11.5,0.1c0,1.4,0,2.8,0,4.2
						c0,0.7,0.6,1.3,1.3,1.4c8,0.3,16.1,1.1,24.1-1.6c0.7-0.2,1.3-0.9,1.3-1.5c0-3.6,0-7.2,0-10.8c0-0.6-0.6-0.9-1.3-0.7
						c-6.7,1.3-13.4,0.2-20.1-1.1c0-1.3,0-2.7,0-4c0-0.7-0.6-1.4-1.3-1.6c-7.2-1.7-14.3-3.4-21.5-2.3c-0.7,0.1-1.3,0.9-1.3,1.7
						c0,4.2,0,8.3,0,12.5l0,0v20.1C222.1,147.7,223.3,148.9,224.8,148.9z"/>
				</g>
			</g>
		</g>
	</g>
</g>
</svg>
