<?xml version="1.0" encoding="utf-8"?>
<!-- Generator: Adobe Illustrator 22.0.1, SVG Export Plug-In . SVG Version: 6.00 Build 0)  -->
<svg version="1.1" id="Layer_1" xmlns="http://www.w3.org/2000/svg" xmlns:xlink="http://www.w3.org/1999/xlink" x="0px" y="0px"
	 viewBox="0 0 112.6 104.2" style="enable-background:new 0 0 112.6 104.2;" xml:space="preserve">
<style type="text/css">
	.st0{fill:#004169;}
</style>
<g>
	<g>
		<g>
			<g>
				<g>
					<path class="st0" d="M6.8,83.1c-0.3,0-0.5-0.1-0.6-0.4l-1.8-7.3c0-0.1-0.1-0.1-0.1-0.1c0,0,0,0.1,0,0.1v7.1
						c0,0.4-0.1,0.6-0.6,0.6H2c-0.4,0-0.6-0.1-0.6-0.6V63.7c0-0.4,0.1-0.6,0.6-0.6h1.3c0.3,0,0.5,0.1,0.5,0.3L7,76.9
						c0,0.1,0.2,0.1,0.2,0l3.2-13.4c0.1-0.2,0.2-0.3,0.5-0.3h1.3c0.4,0,0.6,0.1,0.6,0.6v18.8c0,0.4-0.1,0.6-0.6,0.6h-1.7
						c-0.4,0-0.6-0.1-0.6-0.6v-7.1c0-0.1,0-0.1-0.1-0.1c0,0-0.1,0.1-0.1,0.1l-1.8,7.3c-0.1,0.3-0.3,0.4-0.6,0.4H6.8z"/>
					<path class="st0" d="M25.7,83.1c-0.3,0-0.6,0-0.6-0.4l-0.3-1.5c-0.1-0.6-0.1-0.6-0.6-0.6h-2.5c-0.5,0-0.5,0-0.7,0.6l-0.3,1.5
						c-0.1,0.4-0.3,0.4-0.6,0.4h-1.7c-0.3,0-0.5,0-0.5-0.5l3.6-18.9c0.1-0.4,0.2-0.5,0.6-0.5h1.5c0.5,0,0.5,0.1,0.6,0.5l3.6,18.9
						c0.1,0.4-0.1,0.5-0.5,0.5H25.7z M21.6,77.3c-0.1,0.6-0.1,0.6,0.5,0.6h1.6c0.6,0,0.6,0,0.5-0.6L23,70.4c0-0.1-0.2-0.1-0.2,0
						L21.6,77.3z"/>
					<path class="st0" d="M37.1,63.1c2.6,0,4.3,1.6,4.3,5.3v0.9c0,2.2-0.6,3.8-1.7,4.6l1.7,8.5c0.1,0.4,0,0.6-0.3,0.6h-1.8
						c-0.3,0-0.6,0-0.6-0.4L37.1,75c0-0.2-0.1-0.3-0.3-0.3h-0.5c-0.6,0-0.6,0-0.6,0.6v7.2c0,0.4-0.1,0.6-0.6,0.6h-1.7
						c-0.4,0-0.6-0.1-0.6-0.6V63.7c0-0.4,0.1-0.6,0.6-0.6H37.1z M36.3,65.6c-0.6,0-0.6,0-0.6,0.6v5.4c0,0.6,0,0.6,0.6,0.6h0.9
						c0.9,0,1.4-0.7,1.4-2v-2.5c0-1.4-0.5-2-1.4-2H36.3z"/>
					<path class="st0" d="M50.5,63.1c2.6,0,4.6,1.7,4.6,5.4V71c0,3.7-1.9,5.4-4.6,5.4h-0.9c-0.3,0-0.3,0.1-0.3,0.6v5.5
						c0,0.4-0.2,0.6-0.6,0.6h-1.7c-0.5,0-0.6-0.1-0.6-0.6V63.7c0-0.4,0.1-0.6,0.6-0.6H50.5z M49.4,73.2c0,0.6,0,0.6,0.6,0.6h0.6
						c1,0,1.7-0.7,1.7-2v-3.8c0-1.4-0.7-2-1.7-2h-0.6c-0.6,0-0.6,0-0.6,0.6V73.2z"/>
					<path class="st0" d="M64.3,63.1c2.6,0,4.3,1.6,4.3,5.3v0.9c0,2.2-0.6,3.8-1.7,4.6l1.7,8.5c0.1,0.4,0,0.6-0.3,0.6h-1.8
						c-0.3,0-0.6,0-0.6-0.4L64.3,75c0-0.2-0.1-0.3-0.3-0.3h-0.5c-0.6,0-0.6,0-0.6,0.6v7.2c0,0.4-0.1,0.6-0.6,0.6h-1.7
						c-0.4,0-0.6-0.1-0.6-0.6V63.7c0-0.4,0.1-0.6,0.6-0.6H64.3z M63.4,65.6c-0.6,0-0.6,0-0.6,0.6v5.4c0,0.6,0,0.6,0.6,0.6h0.9
						c0.9,0,1.4-0.7,1.4-2v-2.5c0-1.4-0.5-2-1.4-2H63.4z"/>
					<path class="st0" d="M74.3,83.1c-0.4,0-0.6-0.1-0.6-0.6V63.7c0-0.4,0.1-0.6,0.6-0.6h6c0.4,0,0.6,0.1,0.6,0.6v1.5
						c0,0.4-0.1,0.6-0.6,0.6h-3.2c-0.6,0-0.6,0-0.6,0.6v4.3c0,0.6,0,0.6,0.6,0.6h3.2c0.4,0,0.6,0.1,0.6,0.6v1.5
						c0,0.4-0.1,0.6-0.6,0.6h-3.2c-0.6,0-0.6,0-0.6,0.6v5.4c0,0.6,0,0.6,0.6,0.6h3.2c0.4,0,0.6,0.1,0.6,0.6v1.5
						c0,0.4-0.1,0.6-0.6,0.6H74.3z"/>
					<path class="st0" d="M86.7,81.8c-0.9-0.9-1.3-2-1.3-3.3c0-0.5,0.1-0.6,0.6-0.6h1.7c0.4,0,0.6,0.2,0.6,0.7c0,1.2,0.6,2,1.7,2
						c1.1,0,1.7-0.8,1.8-1.7c0.2-1.3-0.6-2.7-1.8-4.1c-1.7-2-4-4.5-4.2-7.2c-0.1-1.2,0.3-2.3,1.1-3.2s1.8-1.3,3.1-1.3
						c1,0,1.9,0.4,2.7,1.1c0.8,0.7,1.3,1.6,1.4,2.7c0.1,0.8,0,0.9-0.6,0.9h-1.6c-0.4,0-0.6-0.1-0.6-0.6c0-1-0.6-1.5-1.4-1.5
						c-1.1,0-1.5,1-1.4,1.8c0.1,0.7,0.4,1.5,1,2.4c0.6,0.9,1.2,1.7,1.9,2.4c0.7,0.7,1.3,1.6,2,2.7c0.6,1.1,1,2.1,1.1,3.1
						c0.2,1.3-0.2,2.5-1.1,3.6c-0.9,1.1-2,1.6-3.4,1.6C88.7,83.2,87.6,82.7,86.7,81.8z"/>
					<path class="st0" d="M100.3,81.8c-0.9-0.9-1.3-2-1.3-3.3c0-0.5,0.1-0.6,0.6-0.6h1.7c0.4,0,0.6,0.2,0.6,0.7c0,1.2,0.6,2,1.7,2
						c1.1,0,1.7-0.8,1.8-1.7c0.2-1.3-0.6-2.7-1.8-4.1c-1.7-2-4-4.5-4.2-7.2c-0.1-1.2,0.3-2.3,1.1-3.2s1.8-1.3,3.1-1.3
						c1,0,1.9,0.4,2.7,1.1c0.8,0.7,1.3,1.6,1.4,2.7c0.1,0.8,0,0.9-0.6,0.9h-1.6c-0.4,0-0.6-0.1-0.6-0.6c0-1-0.6-1.5-1.4-1.5
						c-1.1,0-1.5,1-1.4,1.8c0.1,0.7,0.4,1.5,1,2.4c0.6,0.9,1.2,1.7,1.9,2.4c0.7,0.7,1.3,1.6,2,2.7c0.6,1.1,1,2.1,1.1,3.1
						c0.2,1.3-0.2,2.5-1.1,3.6c-0.9,1.1-2,1.6-3.4,1.6C102.3,83.2,101.2,82.7,100.3,81.8z"/>
				</g>
			</g>
			<g>
				<g>
					<path class="st0" d="M3.9,100.1c0,0.2,0,0.3-0.3,0.3H3.3c-0.2,0-0.3-0.1-0.3-0.3l-1.7-8.8c0-0.2,0-0.3,0.2-0.3h0.6
						c0.2,0,0.3,0,0.3,0.3l1,5.3c0,0.1,0.1,0.1,0.1,0l0.8-5.3c0-0.2,0.1-0.3,0.3-0.3h0.4c0.2,0,0.3,0.1,0.3,0.3l0.8,5.3
						c0,0.1,0.1,0.1,0.1,0l1-5.3C7.4,91,7.4,91,7.6,91h0.6c0.2,0,0.3,0.1,0.2,0.3l-1.7,8.8c0,0.2-0.1,0.3-0.3,0.3H6
						c-0.3,0-0.3,0-0.3-0.3L5,94.4c0-0.1-0.1-0.1-0.1,0L3.9,100.1z"/>
					<path class="st0" d="M15.6,100.3c-0.2,0-0.3-0.1-0.3-0.3v-2.7l-1.5-6.1c0-0.2,0-0.3,0.2-0.3h0.6c0.2,0,0.3,0,0.3,0.3l0.9,3.7
						c0,0.1,0.1,0.1,0.1,0l0.9-3.7c0.1-0.2,0.1-0.3,0.3-0.3h0.6c0.2,0,0.2,0.1,0.2,0.3c-1,4-1.5,6-1.5,6.1v2.7
						c0,0.2-0.1,0.3-0.3,0.3H15.6z"/>
					<path class="st0" d="M25.3,91c1.2,0,2.1,0.8,2.1,2.5v4.3c0,1.7-0.9,2.5-2.1,2.5h-1.6c-0.2,0-0.3-0.1-0.3-0.3v-8.8
						c0-0.2,0.1-0.3,0.3-0.3H25.3z M24.6,99c0,0.3,0,0.3,0.3,0.3h0.5c0.7,0,1-0.5,1-1.4v-4.4c0-1-0.3-1.4-1-1.4h-0.5
						c-0.3,0-0.3,0-0.3,0.3V99z"/>
					<path class="st0" d="M36.7,100.3c-0.2,0-0.3,0-0.3-0.2l-0.1-0.8C36.2,99,36.2,99,36,99h-1.6c-0.3,0-0.3,0-0.3,0.3l-0.1,0.8
						c0,0.2-0.1,0.2-0.3,0.2h-0.6c-0.1,0-0.3,0-0.2-0.2l1.7-8.8c0-0.2,0.1-0.2,0.3-0.2h0.7c0.2,0,0.3,0,0.3,0.2l1.7,8.8
						c0,0.2-0.1,0.2-0.2,0.2H36.7z M34.4,97.7c0,0.3,0,0.3,0.2,0.3h1.2c0.3,0,0.3,0,0.2-0.3l-0.8-4.5c0-0.1-0.1-0.1-0.1,0L34.4,97.7
						z"/>
					<path class="st0" d="M44.8,100.1c0,0.2,0,0.3-0.3,0.3h-0.3c-0.2,0-0.3-0.1-0.3-0.3l-1.7-8.8c0-0.2,0-0.3,0.2-0.3h0.6
						c0.2,0,0.3,0,0.3,0.3l1,5.3c0,0.1,0.1,0.1,0.1,0l0.8-5.3c0-0.2,0.1-0.3,0.3-0.3H46c0.2,0,0.3,0.1,0.3,0.3l0.8,5.3
						c0,0.1,0.1,0.1,0.1,0l1-5.3c0.1-0.2,0.1-0.3,0.3-0.3h0.6c0.2,0,0.3,0.1,0.2,0.3l-1.7,8.8c0,0.2-0.1,0.3-0.3,0.3h-0.4
						c-0.3,0-0.3,0-0.3-0.3l-0.8-5.6c0-0.1-0.1-0.1-0.1,0L44.8,100.1z"/>
					<path class="st0" d="M58.5,100.3c-0.1,0-0.2-0.1-0.3-0.2l-2.1-5.6c0-0.1-0.1-0.1-0.1,0v5.5c0,0.2-0.1,0.3-0.3,0.3h-0.6
						c-0.2,0-0.3-0.1-0.3-0.3v-8.8c0-0.2,0.1-0.3,0.3-0.3h0.5c0.1,0,0.2,0.1,0.3,0.2l2.1,5.6c0,0.1,0.1,0.1,0.1,0v-5.5
						c0-0.2,0.1-0.3,0.3-0.3H59c0.2,0,0.3,0.1,0.3,0.3v8.8c0,0.2-0.1,0.3-0.3,0.3H58.5z"/>
					<path class="st0" d="M66.1,100.1c0,0.2-0.1,0.3-0.3,0.3h-0.6c-0.2,0-0.3-0.1-0.3-0.3v-8.8c0-0.2,0.1-0.3,0.3-0.3h0.6
						c0.2,0,0.3,0.1,0.3,0.3V100.1z"/>
					<path class="st0" d="M73,97.9c0,1,0.3,1.4,1,1.4c0.6,0,0.9-0.4,1-1.2c0-0.3,0.1-0.3,0.3-0.3h0.6c0.2,0,0.3,0.1,0.3,0.4
						c-0.1,1.5-1,2.2-2.1,2.2c-1.2,0-2.1-0.8-2.1-2.5v-4.4c0-1.7,0.9-2.5,2.1-2.5c1.1,0,2,0.7,2.1,2.2c0,0.3-0.1,0.4-0.3,0.4h-0.6
						c-0.2,0-0.3-0.1-0.3-0.3c-0.1-0.8-0.4-1.2-1-1.2c-0.7,0-1,0.5-1,1.4V97.9z"/>
					<path class="st0" d="M81.4,91.3c0-0.2,0.1-0.3,0.3-0.3h3.5c0.2,0,0.3,0.1,0.3,0.3v0.5c0,0.2-0.1,0.3-0.3,0.3h-0.9
						c-0.3,0-0.3,0-0.3,0.3v7.7c0,0.2-0.1,0.3-0.3,0.3h-0.6c-0.2,0-0.3-0.1-0.3-0.3v-7.7c0-0.3,0-0.3-0.3-0.3h-0.9
						c-0.2,0-0.3-0.1-0.3-0.3V91.3z"/>
					<path class="st0" d="M93.4,100.1c0,0.2,0,0.3-0.3,0.3h-0.3c-0.2,0-0.3-0.1-0.3-0.3l-1.7-8.8c0-0.2,0-0.3,0.2-0.3h0.6
						c0.2,0,0.3,0,0.3,0.3l1,5.3c0,0.1,0.1,0.1,0.1,0l0.8-5.3c0-0.2,0.1-0.3,0.3-0.3h0.4c0.2,0,0.3,0.1,0.3,0.3l0.8,5.3
						c0,0.1,0.1,0.1,0.1,0l1-5.3C96.8,91,96.8,91,97,91h0.6c0.2,0,0.3,0.1,0.2,0.3l-1.7,8.8c0,0.2-0.1,0.3-0.3,0.3h-0.4
						c-0.3,0-0.3,0-0.3-0.3l-0.8-5.6c0-0.1-0.1-0.1-0.1,0L93.4,100.1z"/>
					<path class="st0" d="M107.5,97.8c0,1.7-0.9,2.5-2.1,2.5s-2.1-0.8-2.1-2.5v-4.4c0-1.7,0.9-2.5,2.1-2.5s2.1,0.8,2.1,2.5V97.8z
						 M104.3,97.9c0,1,0.3,1.4,1,1.4s1-0.5,1-1.4v-4.5c0-1-0.3-1.4-1-1.4s-1,0.5-1,1.4V97.9z"/>
				</g>
			</g>
		</g>
		<g>
			<g>
				<g>
					<path class="st0" d="M34.9,35.2l10.8,0c4.6,0,7.2,1.6,8.2,5c0.1,0.3,0.3,0.5,0.6,0.5h0c0.3,0,0.5-0.2,0.6-0.5
						c1-3.5,3.6-5,8.2-5l10.8,0c0.2,0,0.3-0.2,0.3-0.4l-2.3-23.3c0-0.2-0.2-0.3-0.3-0.3h-3.2l-0.2-2.4c0-0.2-0.2-0.3-0.3-0.3h-4.6
						c-5.8,0-7.9,2.4-8.1,8l-0.5,15.5h0c0,0.2-0.2,0.4-0.4,0.4c-0.2,0-0.4-0.2-0.4-0.4h0l-0.5-15.5c-0.2-5.5-2.3-8-8.1-8H41
						c-0.2,0-0.3,0.1-0.3,0.3l-0.2,2.4h-3.2c-0.2,0-0.3,0.1-0.3,0.3l-2.3,23.3C34.6,35,34.7,35.2,34.9,35.2z"/>
				</g>
			</g>
			<g>
				<g>
					<path class="st0" d="M73.7,39.2l-12.6,0c-0.1,0-0.3,0.1-0.3,0.2C60,42,58,43.2,54.5,43.2h0c-3.5,0-5.5-1.2-6.3-3.8
						c0-0.1-0.2-0.2-0.3-0.2l-12.6,0c-0.4,0-0.7,0.3-0.7,0.7c0,0.3,0.2,0.6,0.6,0.7l2.9,0.7c0.6,6.8,4.3,9.8,11.9,9.8h9.3
						c7.6,0,11.2-3,11.9-9.8l2.9-0.7c0.3-0.1,0.6-0.4,0.6-0.7C74.4,39.5,74.1,39.2,73.7,39.2z"/>
				</g>
			</g>
			<g>
				<g>
					<path class="st0" d="M54.5,9.3c0.3,0,0.6-0.3,0.7-0.6l0.5-4.2c1-0.1,1.9-0.1,2.9,0c0,0.3,0,0.7,0,1c0,0.2,0.1,0.3,0.3,0.3
						c2,0.1,4,0.3,6-0.4c0.2-0.1,0.3-0.2,0.3-0.4c0-0.9,0-1.8,0-2.7c0-0.1-0.1-0.2-0.3-0.2c-1.7,0.3-3.3,0-5-0.3c0-0.3,0-0.7,0-1
						c0-0.2-0.1-0.3-0.3-0.4c-1.8-0.4-3.6-0.8-5.3-0.6c-0.2,0-0.3,0.2-0.3,0.4c0,1,0,2.1,0,3.1l0,0v5C53.8,9,54.1,9.3,54.5,9.3z"/>
				</g>
			</g>
		</g>
	</g>
</g>
</svg>
